<svg width="515" height="322" viewBox="0 0 515 322" fill="none" xmlns="http://www.w3.org/2000/svg">
<rect width="518.196" height="370" transform="translate(-2 -11)" fill="#5865F1"/>
<g style="mix-blend-mode:overlay">
<path d="M-6 91L578.934 355.987H-6V91Z" fill="#ABB2FF"/>
</g>
<path d="M83.9974 54.1719C90.4386 45.3804 109.756 43.4129 109.756 43.4129L138.314 71.5468C138.314 71.5468 119.505 73.9097 112.555 82.3057C106.062 90.15 113.01 99.9365 106.319 107.612C96.7875 118.546 80.4382 103.358 69.5573 112.952C57.4117 123.661 74.3842 143.599 61.6762 153.635C50.621 162.366 36.8122 147.348 25.682 155.983C12.7808 165.992 28.9266 185.515 17.2284 196.905C5.27763 208.542 -24.9223 203.828 -24.9223 203.828L-47.0012 178.33C-47.0012 178.33 -16.8531 180.914 -5.22802 168.894C6.12231 157.157 -9.76901 137.859 3.22555 127.971C14.2542 119.58 27.969 134.695 38.6473 125.863C50.1969 116.309 34.9601 98.5618 45.7611 88.1707C55.9266 78.3911 72.8272 92.6868 81.2379 81.3649C87.6064 72.7921 77.6857 62.7866 83.9974 54.1719Z" fill="#FFE868"/>
<path d="M425.997 -17.111C425.997 -17.111 436.922 -15.9983 440.565 -11.026C444.135 -6.15371 438.524 -0.494826 442.126 4.35377C446.883 10.7572 456.442 2.67185 462.191 8.20299C468.3 14.0799 459.682 24.1176 466.214 29.5207C472.254 34.5162 480.011 25.9673 486.248 30.7134C493.598 36.3056 484.61 47.2203 491.029 53.8582C497.604 60.6567 504 52.4602 510.999 56C513.997 57.5161 517.599 61.4 517.999 65M516.999 84.5C505.499 86 509.715 77.4959 502.168 73.6161C493.777 69.3028 485.088 76.2821 478.329 69.7009C471.712 63.2588 480.844 52.217 473.547 46.5561C467.252 41.6724 459.442 50.1661 453.19 45.2281C446.002 39.552 455.602 28.2754 448.732 22.2186C442.578 16.7926 433.332 25.3827 427.941 19.1988C424.156 14.8575 428.086 9.32244 424.414 4.88588C420.483 0.137251 414.244 3.12097 409.845 -1.19915C405.072 -5.88663 403.499 -17.111 403.499 -17.111" stroke="#B7FCD3" stroke-width="3.92573"/>
<path d="M62.6396 383.904C62.6396 383.904 51.7143 382.791 48.0713 377.819C44.5015 372.947 50.1124 367.288 46.5105 362.439C41.7536 356.036 32.195 364.121 26.4457 358.59C20.3369 352.713 28.9545 342.675 22.4223 337.272C16.3828 332.277 8.62602 340.826 2.38849 336.08C-4.96095 330.487 4.02683 319.573 -2.39266 312.935C-8.96758 306.136 -15.3633 314.333 -22.3625 310.793C-25.3604 309.277 -28.9626 305.393 -29.3626 301.793M-28.3625 282.293C-16.8625 280.793 -21.0787 289.297 -13.5313 293.177C-5.14041 297.49 3.5491 290.511 10.3082 297.092C16.9244 303.534 7.79273 314.576 15.0893 320.237C21.3843 325.121 29.1943 316.627 35.4469 321.565C42.6342 327.241 33.035 338.518 39.9043 344.574C46.0582 350 55.3051 341.41 60.6958 347.594C64.4803 351.936 60.5507 357.471 64.223 361.907C68.1536 366.656 74.3923 363.672 78.7913 367.992C83.5645 372.68 85.1374 383.904 85.1374 383.904" stroke="#B7FCD3" stroke-width="3.92573"/>
<path d="M524.501 110C524.501 110 517.943 106.113 513.252 105.299C507.364 104.275 503.738 108.792 498.04 106.985C490.856 104.707 491.562 96.6269 485.213 92.5639C477.246 87.465 468.162 94.0258 461.587 87.2273C455.168 80.5894 464.156 69.6747 456.806 64.0825C450.569 59.3364 442.812 67.8853 436.773 62.8898C430.24 57.4867 438.858 47.4491 432.749 41.5721C427 36.041 417.441 44.1263 412.684 37.7229C409.082 32.8743 414.693 27.2154 411.124 22.3431C407.481 17.3709 400.474 21.0183 396.555 16.2581C392.969 11.9021 395.928 7.08737 393.027 2.24813C388.874 -4.68094 378.278 -1.74961 376.001 -9.50049C374.12 -15.8994 380.403 -26.0013 380.403 -26.0013M528.001 138.668C528.001 138.668 516.888 141.506 510.799 138.668C505.015 135.972 505.487 129.665 500.003 126.4C493.964 122.804 492.862 128.051 482.337 122.964C474.389 119.123 480.538 111.098 472.726 106.985C464.378 102.59 455.646 109.651 448.887 103.07C442.27 96.6279 451.402 85.5861 444.105 79.9252C437.81 75.0415 430 83.5352 423.748 78.5973C416.561 72.9211 426.16 61.6445 419.291 55.5877C413.137 50.1617 403.89 58.7518 398.499 52.5679C394.714 48.2266 398.644 42.6916 394.972 38.255C391.041 33.5064 384.222 37.0111 380.403 32.17C376.116 26.7341 381.986 20.6597 378.796 14.5155C375.07 7.33793 365.852 9.41852 362.112 2.24813C358.184 -5.28267 362.112 -19.5016 362.112 -19.5016" stroke="#B7FCD3" stroke-width="3.92573"/>
<path d="M-35.8638 256.793C-35.8638 256.793 -29.3063 260.68 -24.6158 261.494C-18.7268 262.518 -15.101 258.001 -9.40356 259.808C-2.21896 262.086 -2.92515 270.166 3.42325 274.229C11.3903 279.328 20.4743 272.767 27.0493 279.566C33.4687 286.204 24.481 297.118 31.8304 302.71C38.0679 307.457 45.8247 298.908 51.8642 303.903C58.3964 309.306 49.7788 319.344 55.8876 325.221C61.6369 330.752 71.1955 322.667 75.9525 329.07C79.5543 333.919 73.9434 339.578 77.5132 344.45C81.1562 349.422 88.1629 345.775 92.0815 350.535C95.6673 354.891 92.7089 359.706 95.6097 364.545C99.7632 371.474 110.359 368.543 112.636 376.293C114.516 382.692 108.233 392.794 108.233 392.794M-39.3638 228.125C-39.3638 228.125 -28.2509 225.287 -22.1622 228.125C-16.3779 230.821 -16.8499 237.128 -11.3665 240.393C-5.32767 243.989 -4.22575 238.742 6.29933 243.829C14.2479 247.67 8.09887 255.695 15.9106 259.808C24.259 264.203 32.991 257.142 39.7501 263.723C46.3663 270.165 37.2346 281.207 44.5313 286.868C50.8262 291.751 58.6362 283.258 64.8888 288.196C72.0761 293.872 62.4769 305.148 69.3462 311.205C75.5001 316.631 84.747 308.041 90.1377 314.225C93.9222 318.566 89.9926 324.101 93.6649 328.538C97.5955 333.287 104.415 329.782 108.233 334.623C112.52 340.059 106.65 346.133 109.84 352.277C113.567 359.455 122.785 357.374 126.525 364.545C130.453 372.076 126.525 386.295 126.525 386.295" stroke="#B7FCD3" stroke-width="3.92573"/>
<path fill-rule="evenodd" clip-rule="evenodd" d="M208.703 64.5983C221.728 52.1886 118.938 35.9792 112.995 42.5441C107.052 49.1089 63.8178 149.018 90.7171 141.538C94.61 140.455 99.3458 140.207 104.608 140.566L104.334 141.823C114.623 141.837 124.187 147.329 118.07 158.591C108.806 175.647 116.108 184.203 128.159 186.702C136.132 188.355 158.753 186.508 154.757 166.568C153.396 159.779 157.019 157.025 162.526 156.624L162.714 155.758C168.13 156.494 174.252 157.986 179.814 159.342L179.814 159.342C189.918 161.805 198.172 163.818 196.983 160.026C196.56 158.677 196.142 157.518 195.756 156.449C194.439 152.804 193.497 150.197 194.018 144.592C194.82 141.023 196.454 131.336 196.782 129.376C197.829 128.386 198.947 127.825 200.08 127.829C203.352 127.841 205.035 129.599 206.752 131.392C208.55 133.27 210.386 135.187 214.123 135.18C227.867 135.153 242.428 109.829 228.918 95.9116C221.648 88.4216 215.301 91.8021 210.057 94.5951C205.558 96.9918 201.87 98.9559 199.108 93.2484C199.049 93.126 198.99 92.9802 198.931 92.8125C200.555 80.9749 203.468 69.5862 208.703 64.5983Z" fill="#3633F9"/>
<path fill-rule="evenodd" clip-rule="evenodd" d="M329.454 92.705C322.663 76.3376 428.208 103.396 430.936 111.666C433.664 119.935 427.753 226.762 406.269 209.068C402.363 205.852 397.075 203.224 390.943 201.064C385.808 201.782 382.24 205.101 382.992 212.252C384.997 231.32 373.895 235.713 360.603 232.703C351.808 230.712 329.686 219.292 342.365 203.418C346.352 198.426 344.542 194.632 339.982 191.926C339.844 191.913 339.706 191.901 339.568 191.889C332.528 189.714 324.315 189.439 317.959 189.226C310.986 188.992 306.246 188.833 307.739 186.323C308.429 185.164 309.204 183.986 310.004 182.772C312.515 178.959 315.265 174.784 316.337 169.68C317.006 166.492 318.258 158.023 318.693 155.034C318.254 151.869 316.69 150.244 313.45 151.554C301.452 156.407 274.075 139.727 292.945 120.046C305.819 106.619 312.294 112.856 317.614 117.979C320.091 120.366 322.318 122.511 324.824 122.314C326.878 122.153 328.487 119.828 329.581 116.422C331.254 107.144 331.765 98.2758 329.454 92.705Z" fill="#3633F9"/>
<circle cx="449.176" cy="81.4245" r="10.1303" transform="rotate(12.2678 449.176 81.4245)" fill="#FFE868"/>
<path d="M366.538 146.393L365.864 145.346L365.246 146.113L366.538 146.393Z" fill="#23293E"/>
<path d="M169.617 230.598C176.971 234.671 161.829 257.601 151.689 256.586C151.689 256.586 202.464 272.324 224.941 277.679C247.417 283.034 301.628 287.32 301.628 287.32C291.982 284.032 290.617 255.182 298.999 254.531C301.458 254.341 304.031 255.437 307.499 256.5C315.851 259.063 325.322 260.208 331.887 249.02C341.179 233.185 317.048 217.342 304.297 222.481C291.546 227.621 305.674 193.026 311.995 188C312.551 187.559 310.927 184.229 311.995 183.915C311.565 183.696 311.295 183.427 311.21 183.093C302.222 187.048 263.883 183.598 275.412 168.16C287.507 151.964 267.063 140.84 258.893 138.983C246.544 136.179 236.114 140.788 237.662 159.952C239.183 178.76 197.624 163.991 189.906 152.079L190.153 152.814C191.254 156.145 184.925 155.02 176.342 152.991C181.683 155.388 185.904 158.175 186.971 160.269C190.635 167.466 185.651 206.463 176.186 196.493C166.72 186.523 138.19 190.915 140.067 209.178C141.393 222.083 151.927 227.363 160.589 228.5L160.593 228.5C164.188 228.974 167.46 229.405 169.617 230.598Z" fill="#3633F9"/>
<path d="M169.149 94.4332C169.536 94.0312 169.094 94.3705 167.923 94.4336C168.186 95.1161 168.312 95.0316 168.944 95.3784L169.149 94.4332Z" fill="#AD23A8"/>
<path d="M216.785 60.1852C218.952 60.6564 301.429 78.1247 325.101 86.2054C334.135 89.2896 332.815 121.729 324.96 122.35C317.106 122.97 312.014 100.447 293.21 120.101C274.405 139.756 301.665 156.392 313.618 151.542C325.57 146.692 314.608 182.046 308.679 186.783C302.751 191.519 261.941 188.725 273.515 173.085C285.09 157.444 265.615 146.768 257.827 144.998C246.055 142.322 236.095 146.791 237.528 165.26C238.961 183.728 197.825 168.704 191.616 157.138C185.407 145.573 191.492 126.384 198.286 126.464C205.08 126.543 205.181 133.717 212.591 133.765C226.531 133.855 241.083 109.233 227.264 95.5197C213.445 81.8066 203.179 104.792 197.008 92.6651C195.735 90.1644 194.437 77.7117 200.3 69.1713C206.164 60.6311 214.617 59.714 216.785 60.1852Z" fill="#5EBE99"/>
<path d="M216.785 60.1852C218.952 60.6564 301.429 78.1239 325.1 86.21C334.134 89.2962 332.8 121.796 324.945 122.421C317.09 123.045 312.006 100.483 293.192 120.181C274.379 139.879 301.634 156.535 313.59 151.671C325.545 146.807 314.568 182.231 308.637 186.979C302.706 191.726 261.894 188.943 273.475 173.269C285.057 157.596 265.585 146.908 257.797 145.137C246.024 142.462 236.063 146.942 237.488 165.444C238.914 183.946 197.78 168.911 191.575 157.326C185.37 145.742 191.464 126.515 198.258 126.593C205.052 126.67 205.151 133.857 212.561 133.902C226.502 133.987 241.066 109.313 227.251 95.5804C213.436 81.8477 203.16 104.88 196.993 92.7327C195.721 90.2279 194.428 77.7528 200.295 69.1944C206.162 60.6362 214.617 59.714 216.785 60.1852Z" fill="#2FBE87" stroke="#6EDBB1" stroke-width="1.8"/>
<mask id="mask0_3556_84388" style="mask-type:alpha" maskUnits="userSpaceOnUse" x="188" y="60" width="143" height="129">
<path d="M216.541 60.9952C218.699 61.4645 300.834 78.862 324.41 86.8993C333.408 89.967 332.117 122.162 324.297 122.772C316.476 123.382 311.39 101.024 292.681 120.517C273.972 140.011 301.126 156.542 313.024 151.737C324.922 146.932 314.032 182.013 308.133 186.71C302.233 191.407 261.597 188.604 273.11 173.089C284.623 157.574 265.225 146.964 257.468 145.202C245.745 142.537 235.832 146.965 237.272 165.296C238.712 183.628 197.742 168.685 191.551 157.202C185.36 145.719 191.405 126.678 198.17 126.763C204.935 126.847 205.041 133.967 212.419 134.02C226.298 134.12 240.771 109.692 227.001 96.0722C213.231 82.452 203.026 105.257 196.873 93.2169C195.604 90.7341 194.302 78.3738 200.134 69.9018C205.966 61.43 214.382 60.526 216.541 60.9952Z" fill="#71F3A7"/>
</mask>
<g mask="url(#mask0_3556_84388)">
<g style="mix-blend-mode:overlay">
<path fill-rule="evenodd" clip-rule="evenodd" d="M286.966 63.4273C282.265 59.1736 276.71 57.0351 274.52 56.4977C266.558 62.6323 262.767 66.937 257.283 75.8814C257.759 79.6004 264.821 88.819 265.391 88.7311C265.847 88.6608 269.501 85.9579 271.271 84.6153C267.584 81.9206 266.153 77.4974 265.898 75.6226C271.734 84.2132 281.12 88.5745 285.083 89.6813C282.212 90.6102 275.057 87.7266 274.728 87.4856C274.465 87.2928 273.29 91.8239 272.736 94.1135C277.162 97.0873 284.45 97.9795 287.541 98.0539C290.93 94.8085 300.971 78.5767 300.612 75.6174C300.325 73.2501 293.953 68.3788 290.803 66.2391L294.612 73.9172C290.764 68.1316 282.28 63.3073 278.519 61.6184L286.966 63.4273ZM277.894 73.9666C276.43 75.9646 273.575 76.3614 271.516 74.8529C269.457 73.3444 268.976 70.5018 270.44 68.5038C271.904 66.5057 274.76 66.1089 276.818 67.6174C278.877 69.1259 279.359 71.9685 277.894 73.9666ZM284.014 84.0115C286.073 85.52 288.929 85.1231 290.393 83.1251C291.857 81.1271 291.375 78.2844 289.316 76.7759C287.258 75.2674 284.402 75.6643 282.938 77.6623C281.474 79.6603 281.956 82.503 284.014 84.0115Z" fill="#C5FFDD"/>
</g>
<g style="mix-blend-mode:overlay">
<path fill-rule="evenodd" clip-rule="evenodd" d="M229.306 74.1519C224.605 69.8982 219.05 67.7597 216.86 67.2223C208.898 73.3569 205.107 77.6616 199.623 86.606C200.099 90.325 207.161 99.5436 207.731 99.4557C208.186 99.3854 211.841 96.6825 213.611 95.3399C209.924 92.6452 208.492 88.222 208.237 86.3472C214.074 94.9379 223.459 99.2991 227.423 100.406C224.551 101.335 217.397 98.4512 217.068 98.2102C216.805 98.0174 215.63 102.549 215.076 104.838C219.502 107.812 226.79 108.704 229.881 108.779C233.27 105.533 243.311 89.3013 242.952 86.342C242.665 83.9747 236.293 79.1034 233.143 76.9637L236.952 84.6418C233.104 78.8562 224.62 74.0319 220.858 72.343L229.306 74.1519ZM220.235 84.6919C218.771 86.69 215.915 87.0868 213.857 85.5783C211.798 84.0698 211.316 81.2272 212.78 79.2291C214.244 77.2311 217.1 76.8342 219.159 78.3427C221.217 79.8513 221.699 82.6939 220.235 84.6919ZM226.354 94.7357C228.413 96.2442 231.269 95.8474 232.733 93.8493C234.197 91.8513 233.715 89.0087 231.657 87.5002C229.598 85.9917 226.742 86.3885 225.278 88.3865C223.814 90.3846 224.296 93.2272 226.354 94.7357Z" fill="#C5FFDD"/>
</g>
<g style="mix-blend-mode:overlay">
<path fill-rule="evenodd" clip-rule="evenodd" d="M268.306 117.152C263.605 112.898 258.05 110.76 255.86 110.222C247.898 116.357 244.107 120.662 238.623 129.606C239.099 133.325 246.161 142.544 246.731 142.456C247.186 142.385 250.841 139.683 252.611 138.34C248.924 135.645 247.492 131.222 247.237 129.347C253.074 137.938 262.459 142.299 266.423 143.406C263.551 144.335 256.397 141.451 256.068 141.21C255.805 141.017 254.63 145.549 254.076 147.838C258.502 150.812 265.79 151.704 268.881 151.779C272.27 148.533 282.311 132.301 281.952 129.342C281.665 126.975 275.293 122.103 272.143 119.964L275.952 127.642C272.104 121.856 263.62 117.032 259.858 115.343L268.306 117.152ZM259.236 127.691C257.772 129.689 254.916 130.086 252.857 128.578C250.799 127.069 250.317 124.226 251.781 122.228C253.245 120.23 256.101 119.833 258.16 121.342C260.218 122.85 260.7 125.693 259.236 127.691ZM265.353 137.736C267.412 139.245 270.268 138.848 271.732 136.85C273.196 134.852 272.714 132.009 270.656 130.501C268.597 128.992 265.741 129.389 264.277 131.387C262.813 133.385 263.295 136.228 265.353 137.736Z" fill="#C5FFDD"/>
</g>
<g style="mix-blend-mode:overlay">
<path fill-rule="evenodd" clip-rule="evenodd" d="M223.306 156.152C218.605 151.898 213.05 149.76 210.86 149.222C202.898 155.357 199.107 159.662 193.623 168.606C194.099 172.325 201.161 181.544 201.731 181.456C202.186 181.385 205.841 178.683 207.611 177.34C203.924 174.645 202.492 170.222 202.237 168.347C208.074 176.938 217.459 181.299 221.423 182.406C218.551 183.335 211.397 180.451 211.068 180.21C210.805 180.017 209.63 184.549 209.076 186.838C213.502 189.812 220.79 190.704 223.881 190.779C227.27 187.533 237.311 171.301 236.952 168.342C236.665 165.975 230.293 161.103 227.143 158.964L230.952 166.642C227.104 160.856 218.62 156.032 214.858 154.343L223.306 156.152ZM214.236 166.691C212.772 168.689 209.916 169.086 207.857 167.578C205.799 166.069 205.317 163.226 206.781 161.228C208.245 159.23 211.101 158.833 213.16 160.342C215.218 161.85 215.7 164.693 214.236 166.691ZM220.353 176.736C222.412 178.245 225.268 177.848 226.732 175.85C228.196 173.852 227.714 171.009 225.656 169.501C223.597 167.992 220.741 168.389 219.277 170.387C217.813 172.385 218.295 175.228 220.353 176.736Z" fill="#C5FFDD"/>
</g>
<g style="mix-blend-mode:overlay">
<path fill-rule="evenodd" clip-rule="evenodd" d="M324.306 159.152C319.605 154.898 314.05 152.76 311.86 152.222C303.898 158.357 300.107 162.662 294.623 171.606C295.099 175.325 302.161 184.544 302.731 184.456C303.186 184.385 306.841 181.683 308.611 180.34C304.924 177.645 303.492 173.222 303.237 171.347C309.074 179.938 318.459 184.299 322.423 185.406C319.551 186.335 312.397 183.451 312.068 183.21C311.805 183.017 310.63 187.549 310.076 189.838C314.502 192.812 321.79 193.704 324.881 193.779C328.27 190.533 338.311 174.301 337.952 171.342C337.665 168.975 331.293 164.103 328.143 161.964L331.952 169.642C328.104 163.856 319.62 159.032 315.858 157.343L324.306 159.152ZM315.236 169.691C313.772 171.689 310.916 172.086 308.857 170.578C306.799 169.069 306.317 166.226 307.781 164.228C309.245 162.23 312.101 161.833 314.16 163.342C316.218 164.85 316.7 167.693 315.236 169.691ZM321.353 179.736C323.412 181.245 326.268 180.848 327.732 178.85C329.196 176.852 328.714 174.009 326.656 172.501C324.597 170.992 321.741 171.389 320.277 173.387C318.813 175.385 319.295 178.228 321.353 179.736Z" fill="#C5FFDD"/>
</g>
<g style="mix-blend-mode:overlay">
<path fill-rule="evenodd" clip-rule="evenodd" d="M336.306 96.1519C331.605 91.8982 326.05 89.7597 323.86 89.2223C315.898 95.3569 312.107 99.6616 306.623 108.606C307.099 112.325 314.161 121.544 314.731 121.456C315.186 121.385 318.841 118.683 320.611 117.34C316.924 114.645 315.492 110.222 315.237 108.347C321.074 116.938 330.459 121.299 334.423 122.406C331.551 123.335 324.397 120.451 324.068 120.21C323.805 120.017 322.63 124.549 322.076 126.838C326.502 129.812 333.79 130.704 336.881 130.779C340.27 127.533 350.311 111.301 349.952 108.342C349.665 105.975 343.293 101.103 340.143 98.9637L343.952 106.642C340.104 100.856 331.62 96.0319 327.858 94.343L336.306 96.1519ZM327.234 106.692C325.77 108.69 322.914 109.087 320.855 107.579C318.797 106.07 318.315 103.228 319.779 101.229C321.243 99.2314 324.099 98.8346 326.158 100.343C328.216 101.852 328.698 104.694 327.234 106.692ZM333.353 116.737C335.411 118.245 338.267 117.849 339.731 115.851C341.195 113.853 340.714 111.01 338.655 109.501C336.596 107.993 333.741 108.39 332.277 110.388C330.812 112.386 331.294 115.228 333.353 116.737Z" fill="#C5FFDD"/>
</g>
</g>
<path d="M216.786 60.1866C214.619 59.7154 206.165 60.6324 200.302 69.1727C194.438 77.7131 195.737 90.1658 197.009 92.6665C203.181 104.794 213.447 81.808 227.266 95.5211C241.085 109.234 226.532 133.857 212.593 133.766C205.183 133.718 205.082 126.545 198.288 126.465C191.494 126.385 185.409 145.574 191.618 157.14C197.827 168.705 238.963 183.73 237.53 165.261C236.097 146.792 246.056 142.324 257.829 144.999C265.617 146.77 285.091 157.446 273.517 173.086C261.943 188.727 302.753 191.521 308.681 186.784C314.61 182.047 325.572 146.693 313.62 151.543C301.667 156.393 274.407 139.757 293.212 120.103C312.016 100.448 317.108 122.972 324.962 122.351C332.817 121.73 334.137 89.291 325.102 86.2068" stroke="#6EDBB1" stroke-width="1.7618"/>
<path d="M180.068 86.9832C178.94 86.2874 178.495 87.0842 178.663 87.563C179.317 87.5148 179.114 87.2272 180.068 86.9832Z" fill="#AD23A8"/>
<path d="M123.271 135.412C121.953 132.121 114.956 123.628 111.445 119.318C115.901 116.238 118.802 115.324 125.555 112.47L132.051 133.91C132.97 134.437 133.966 133.686 136.044 134.778C138.66 136.153 143.312 140.671 140.636 140.54C137.96 140.409 136.645 137.555 136.348 139.225C136.051 140.895 143.207 147.075 142.151 148.082C140.596 149.564 141.265 151.814 130.394 146.849C129.699 146.532 129.072 146.071 128.573 145.494C123.767 139.94 124.316 138.022 123.271 135.412Z" fill="#FFE868"/>
<path d="M391.501 110.352C392.31 111.61 399.105 115.461 402.467 115.892L404.675 107.808C400.222 108.943 390.693 109.095 391.501 110.352Z" fill="#F860F2"/>
<path d="M126.001 82C125.501 106 134.001 134.002 134.001 134.002C133.601 134.404 132.501 134.169 132.001 134.002L126.001 114.5H127.001C121.001 100.9 118.834 85.1667 119.001 79.5C123.801 63.9 135.501 51 141.001 48.5C141.001 48.5 126.318 66.7666 126.001 82Z" fill="black" fill-opacity="0.18"/>
<path d="M115.976 44.5792C124.914 26.6902 139.499 20.6966 145.675 19.9359C146.784 29.3423 149.5 50 149.5 50C149.5 50 144 48.5 142.5 48.5C135.398 48.5 122.505 72.5928 120.054 79.7222C118.092 85.4258 123.183 106.095 126.901 114.566C123.188 113.398 115.885 118.932 112.697 121.845C90.5431 82.7709 104.803 66.9405 115.976 44.5792Z" fill="#F860F2"/>
<path d="M351.096 155.206C352.628 153.179 356.885 140.657 358.226 136.924C361.781 138.464 362.496 141.269 366.768 144.281L354.426 162.692C354.164 163.896 352.892 165.834 351.961 169.893C351.921 170.069 351.719 170.155 351.581 170.039C349.689 168.448 351.745 164.581 351.189 165.143C345.238 169.645 344.686 174.321 342.768 172.777C340.85 171.233 342.412 168.192 343.442 163.458C344.471 158.724 349.926 156.754 351.096 155.206Z" fill="#F860F2"/>
<path d="M438.361 79.0692L438.415 79.0863C435.478 88.0913 421.454 108.604 420.891 108.179C406.415 101.876 393.5 115.092 386.952 118.829C381.806 121.767 366.535 146.392 366.535 146.392C366.535 146.392 360.528 138.776 357.141 139.842C371.814 99.3112 385.736 103.69 401.943 85.1286C414.038 71.275 432.38 77.1524 438.361 79.0692Z" fill="#29345B"/>
<path d="M168.499 106.5C170.861 106.011 175.438 101.314 177.499 97.0006C176.058 95.0832 173.393 92.3448 172.479 91.7979C171.335 91.1144 156.323 105.004 157.499 106.499C158.674 107.994 165.546 107.112 168.499 106.5Z" fill="#FFE868"/>
<path d="M180.387 25.5639C185.957 28.2776 199.501 36.1409 204.501 42.9976C210.751 51.5684 212.632 75.8058 177.283 97.4173C174.682 96.2507 169.109 94.3779 168.001 94.4976C166.616 94.6472 191.787 62.1759 191.001 57.4976C181.037 56.0649 166.146 53.9558 165.79 53.9296L165.789 53.9313C165.781 53.9295 165.781 53.929 165.79 53.9296L180.387 25.5639Z" fill="#F860F2"/>
<path d="M439.497 135.498C457.072 138.903 457.805 112.898 455.161 105.712C432.484 100.266 421.339 100.806 404.15 108.142L402.371 116.32C407.704 119.433 420.467 131.811 439.497 135.498Z" fill="#1D275C"/>
<ellipse cx="144.643" cy="35.0391" rx="3.96404" ry="5.72584" transform="rotate(2.12982 144.643 35.0391)" fill="#FFE868"/>
<ellipse cx="419.956" cy="100.035" rx="3.96404" ry="5.72584" transform="rotate(2.12982 419.956 100.035)" fill="#F860F2"/>
<ellipse cx="175.728" cy="41.0184" rx="3.96404" ry="5.72584" transform="rotate(31.92 175.728 41.0184)" fill="#FFE868"/>
<ellipse cx="447.754" cy="113.023" rx="3.96404" ry="5.72584" transform="rotate(50.1455 447.754 113.023)" fill="#F860F2"/>
<path d="M178.851 37.3391C176.494 48.1791 163.7 57.6617 156.732 56.1464C149.763 54.6312 142.062 40.6922 144.42 29.8522C146.777 19.0122 156.395 11.9006 165.903 13.9681C175.411 16.0355 181.208 26.4991 178.851 37.3391Z" fill="#FFE868"/>
<path d="M450.242 110.308C444.234 120.045 429.392 125.412 423.713 121.908C418.034 118.404 416.173 102.732 422.18 92.9943C428.188 83.257 439.34 79.239 447.089 84.02C454.838 88.801 456.25 100.57 450.242 110.308Z" fill="black" fill-opacity="0.1"/>
<path d="M452.097 109.143C446.272 118.584 431.054 123.277 424.985 119.532C418.916 115.788 416.284 100.082 422.109 90.6412C427.934 81.2003 439.369 77.6887 447.65 82.7978C455.931 87.907 457.922 99.7022 452.097 109.143Z" fill="#F860F2"/>
<path d="M419.345 98.3785C425.348 98.9627 442.625 90.8197 442.625 90.8197C442.625 90.8197 442.43 96.7515 443.242 100.419C444.356 105.458 448.743 112.433 448.743 112.433C464.537 97.8382 455.729 89.2537 454.358 86.6093C443.562 65.7821 414.144 78.7674 419.345 98.3785Z" fill="#FFE868"/>
<path d="M252 259.709C253.249 259.24 258.658 245.639 261 239C261 246.03 260.43 260.415 259.805 260.883C259.18 261.352 254.341 260.296 252 259.709Z" fill="black" fill-opacity="0.18"/>
<path d="M401.001 115.5C399.72 115.127 386.357 122.096 380.501 126.001C384.001 119.5 394.72 113 395.501 113C396.282 113 397.745 114.55 401.001 115.5Z" fill="black" fill-opacity="0.18"/>
<path d="M440.363 76.3555C440.39 76.3379 440.449 76.3345 440.537 76.3451C450.037 75.8251 456.06 82.9601 455.707 88.7069C453.047 81.2951 442.122 76.5373 440.537 76.3451C440.479 76.3483 440.421 76.3518 440.363 76.3555Z" fill="#F3D945"/>
<path d="M256.203 257.176C253.318 256.909 247.33 258.855 244.644 259.924L244.014 266.695C247.967 267.554 250.795 267.957 255.387 268.977C259.859 269.97 264.08 261.142 262.51 259.899C260.941 258.656 259.81 257.509 256.203 257.176Z" fill="#F860F2"/>
<path d="M262.942 210.26C264.871 214.682 263.563 221.949 263.412 222.646L271.202 222.059C270.815 219.695 269.942 212.047 270.448 209.736C270.954 207.425 273.978 198.097 268.998 189.006C268.489 188.078 268.651 188.47 266.499 188.002C264.347 187.534 263.47 199.133 262.465 201.158C261.688 202.722 261.497 196.151 260.475 196.612C257.682 197.873 259.956 204.199 260.451 206.221C260.946 208.243 262.2 208.558 262.942 210.26Z" fill="#F860F2"/>
<ellipse cx="243.751" cy="302.699" rx="4.40449" ry="6.16629" transform="rotate(3.28091 243.751 302.699)" fill="#C4C4C4"/>
<path d="M211.26 265.557L232.81 270.243L254.391 272.712C259.41 256.197 262.467 246.166 260.941 223.07C260.922 222.783 261.149 222.531 261.436 222.526C265.719 222.448 268.258 221.904 272.365 221.209C272.634 221.163 272.889 221.339 272.938 221.607C273.5 224.691 276.56 241.876 276.435 249.929C276.298 258.795 276.032 266.565 274.557 277.097C272.98 288.359 270.498 298.5 265.998 302C261.498 305.5 230.461 311.073 230.461 311.073L232.672 300.903L209.761 284.802L211.26 265.557Z" fill="#FFE868"/>
<path d="M200.505 262.188C207.414 255.786 240.34 258.034 244.818 258.371C245.102 258.393 245.294 258.646 245.259 258.928L244.235 267.163C244.209 267.365 244.066 267.532 243.868 267.584C232.848 270.477 217.962 273.265 216.014 274.522C214.046 275.791 216.72 285.194 220.129 294.507L209.545 304.269C209.545 304.269 192.961 293.3 191.998 288C191.036 282.7 193.088 269.059 200.505 262.188Z" fill="#FFE868"/>
<path d="M245.136 304.621C242.583 316.362 232.42 324.12 222.436 321.949C212.453 319.778 206.43 308.5 208.983 296.759C211.536 285.018 221.699 277.26 231.682 279.431C241.665 281.601 247.689 292.879 245.136 304.621Z" fill="#F9DE4C"/>
<ellipse cx="244.37" cy="301.926" rx="3.08314" ry="5.72584" transform="rotate(12.2678 244.37 301.926)" fill="#F95AF2"/>
<ellipse cx="210.8" cy="294.625" rx="3.08314" ry="5.72584" transform="rotate(12.2678 210.8 294.625)" fill="#F95AF2"/>
<path d="M302.245 287.894C326.33 296.136 384.04 307.077 386.246 307.556C388.452 308.036 392.345 307.765 398.325 299.011C404.306 290.257 405.404 273.237 408.859 250.569C410.751 238.154 419.432 223.544 413.128 211.709C406.823 199.874 380.983 192.319 382.416 211.23C383.849 230.142 373.705 234.731 361.725 232.008C353.799 230.206 333.99 219.3 345.794 203.267C357.598 187.234 316.06 184.43 310.018 189.288C303.977 194.147 292.768 230.368 304.942 225.384C317.116 220.401 340.096 235.616 331.196 250.903C322.297 266.189 306.602 253.875 298.606 254.522C290.61 255.168 293.052 284.748 302.245 287.894Z" fill="#D43EE2"/>
<path d="M302.245 287.892C326.33 296.134 384.04 307.075 386.246 307.554C388.452 308.034 392.345 307.763 398.325 299.009C404.306 290.255 405.404 273.235 408.859 250.567C410.751 238.152 419.432 223.542 413.128 211.707C406.823 199.872 380.983 192.317 382.416 211.228C383.849 230.14 373.705 234.729 361.725 232.006C353.799 230.204 333.99 219.298 345.794 203.265C357.598 187.232 316.06 184.428 310.018 189.287C303.977 194.145 292.768 230.366 304.942 225.382C317.116 220.399 340.096 235.614 331.196 250.901C322.297 266.187 306.602 253.873 298.606 254.52C290.61 255.166 293.052 284.747 302.245 287.892Z" fill="#D43EE2" stroke="#F8ACFF" stroke-width="1.8"/>
<mask id="mask1_3556_84388" style="mask-type:alpha" maskUnits="userSpaceOnUse" x="293" y="187" width="122" height="120">
<path d="M302.237 287.19C326.111 295.366 383.318 306.207 385.505 306.683C387.692 307.158 391.551 306.888 397.484 298.189C403.417 289.49 404.514 272.582 407.949 250.062C409.831 237.729 418.443 223.211 412.199 211.457C405.954 199.704 380.34 192.21 381.752 210.996C383.164 229.781 373.105 234.345 361.23 231.645C353.373 229.859 333.74 219.034 345.449 203.102C357.159 187.169 315.98 184.403 309.988 189.232C303.997 194.062 292.868 230.048 304.939 225.092C317.01 220.135 339.785 235.24 330.956 250.429C322.126 265.619 306.572 253.393 298.645 254.039C290.717 254.685 293.125 284.069 302.237 287.19Z" fill="#D43EE2"/>
</mask>
<g mask="url(#mask1_3556_84388)">
<g opacity="0.7">
<path fill-rule="evenodd" clip-rule="evenodd" d="M312.033 259.612C312.191 259.524 312.129 259.29 311.949 259.294C308.323 259.379 305.188 260.525 303.949 261.154C303.901 261.178 303.869 261.223 303.859 261.276C302.676 267.394 302.679 270.985 303.792 277.4C303.799 277.44 303.818 277.475 303.848 277.501C305.688 279.038 312.718 280.421 312.947 280.146C313.123 279.936 313.668 277.428 313.961 276.002C313.984 275.886 313.889 275.781 313.772 275.788C311.503 275.921 309.479 274.977 308.347 274.218C308.193 274.114 308.298 273.901 308.479 273.94C314.102 275.155 319.54 273.739 322.076 272.666C322.237 272.598 322.368 272.759 322.246 272.884C320.821 274.343 317.056 275.667 316.825 275.687C316.627 275.705 317.877 278.186 318.579 279.524C318.613 279.59 318.684 279.626 318.757 279.616C322.004 279.139 325.679 276.641 327.182 275.393C327.218 275.363 327.239 275.325 327.242 275.278C327.455 272.235 325.468 260.602 324.083 259.368C323.062 258.458 318.781 258.673 316.243 258.945C316.063 258.965 316.031 259.208 316.199 259.277L320.554 261.056C317.085 260.128 312.406 260.812 309.484 261.51C309.278 261.559 309.146 261.233 309.331 261.129L312.033 259.612ZM312.708 268.012C312.848 269.56 311.668 270.931 310.074 271.075C308.48 271.219 307.074 270.081 306.934 268.534C306.795 266.986 307.974 265.615 309.568 265.471C311.163 265.327 312.568 266.465 312.708 268.012ZM319.754 270.201C321.348 270.057 322.527 268.686 322.388 267.139C322.248 265.591 320.842 264.453 319.248 264.597C317.654 264.741 316.474 266.112 316.614 267.66C316.754 269.207 318.159 270.345 319.754 270.201Z" fill="#F27DFD"/>
<path fill-rule="evenodd" clip-rule="evenodd" d="M310.436 230.337C310.593 230.249 310.532 230.015 310.352 230.019C306.725 230.104 303.59 231.25 302.352 231.878C302.304 231.903 302.271 231.948 302.261 232.001C301.079 238.118 301.081 241.71 302.195 248.125C302.201 248.164 302.22 248.2 302.251 248.225C304.091 249.763 311.12 251.146 311.35 250.871C311.525 250.66 312.071 248.152 312.363 246.726C312.387 246.611 312.292 246.506 312.174 246.513C309.906 246.646 307.881 245.701 306.75 244.942C306.595 244.838 306.7 244.625 306.882 244.665C312.504 245.88 317.942 244.463 320.479 243.391C320.639 243.323 320.771 243.484 320.649 243.609C319.224 245.068 315.458 246.391 315.227 246.412C315.029 246.43 316.28 248.911 316.982 250.249C317.016 250.314 317.086 250.351 317.159 250.34C320.406 249.864 324.081 247.365 325.584 246.117C325.621 246.087 325.641 246.05 325.645 246.003C325.858 242.96 323.871 231.327 322.485 230.092C321.464 229.183 317.183 229.398 314.645 229.67C314.465 229.689 314.433 229.933 314.601 230.001L318.957 231.781C315.488 230.852 310.808 231.537 307.886 232.234C307.681 232.283 307.549 231.957 307.733 231.854L310.436 230.337ZM311.11 238.74C311.25 240.287 310.071 241.658 308.476 241.802C306.882 241.946 305.476 240.808 305.337 239.261C305.197 237.713 306.376 236.342 307.97 236.198C309.565 236.054 310.97 237.192 311.11 238.74ZM318.156 240.929C319.75 240.785 320.929 239.414 320.79 237.867C320.65 236.319 319.244 235.182 317.65 235.325C316.055 235.469 314.876 236.84 315.016 238.388C315.156 239.935 316.561 241.073 318.156 240.929Z" fill="#F27DFD"/>
<path fill-rule="evenodd" clip-rule="evenodd" d="M305.397 205.767C305.554 205.678 305.493 205.445 305.313 205.449C301.686 205.533 298.551 206.68 297.312 207.308C297.265 207.332 297.232 207.378 297.222 207.43C296.04 213.548 296.042 217.139 297.155 223.554C297.162 223.594 297.181 223.629 297.212 223.655C299.052 225.192 306.081 226.576 306.311 226.3C306.486 226.09 307.032 223.582 307.324 222.156C307.348 222.04 307.253 221.936 307.135 221.943C304.867 222.076 302.842 221.131 301.711 220.372C301.556 220.268 301.661 220.055 301.843 220.094C307.465 221.309 312.903 219.893 315.44 218.82C315.6 218.752 315.731 218.914 315.609 219.038C314.185 220.498 310.419 221.821 310.188 221.842C309.99 221.86 311.24 224.341 311.942 225.679C311.977 225.744 312.047 225.781 312.12 225.77C315.367 225.294 319.042 222.795 320.545 221.547C320.581 221.517 320.602 221.479 320.606 221.433C320.819 218.389 318.832 206.756 317.446 205.522C316.425 204.613 312.144 204.827 309.606 205.1C309.426 205.119 309.394 205.362 309.562 205.431L313.918 207.21C310.449 206.282 305.769 206.966 302.847 207.664C302.642 207.713 302.51 207.387 302.694 207.284L305.397 205.767ZM306.071 214.166C306.211 215.713 305.032 217.085 303.437 217.228C301.843 217.372 300.437 216.235 300.298 214.687C300.158 213.14 301.337 211.769 302.931 211.625C304.526 211.481 305.932 212.619 306.071 214.166ZM313.117 216.356C314.711 216.212 315.89 214.841 315.751 213.293C315.611 211.746 314.205 210.608 312.611 210.752C311.017 210.896 309.837 212.267 309.977 213.814C310.117 215.362 311.522 216.5 313.117 216.356Z" fill="#F27DFD"/>
<path fill-rule="evenodd" clip-rule="evenodd" d="M299.033 177.612C299.191 177.524 299.129 177.29 298.949 177.294C295.323 177.379 292.188 178.525 290.949 179.154C290.901 179.178 290.869 179.223 290.859 179.276C289.676 185.394 289.679 188.985 290.792 195.4C290.799 195.44 290.818 195.475 290.848 195.501C292.688 197.038 299.718 198.421 299.947 198.146C300.123 197.936 300.668 195.428 300.961 194.002C300.984 193.886 300.889 193.781 300.772 193.788C298.503 193.921 296.479 192.977 295.347 192.218C295.193 192.114 295.298 191.901 295.479 191.94C301.102 193.155 306.54 191.739 309.076 190.666C309.237 190.598 309.368 190.759 309.246 190.884C307.821 192.343 304.056 193.667 303.825 193.687C303.627 193.705 304.877 196.186 305.579 197.524C305.613 197.59 305.684 197.626 305.757 197.616C309.004 197.139 312.679 194.641 314.182 193.393C314.218 193.363 314.239 193.325 314.242 193.278C314.455 190.235 312.468 178.602 311.083 177.368C310.062 176.458 305.781 176.673 303.243 176.945C303.063 176.965 303.031 177.208 303.199 177.277L307.554 179.056C304.085 178.128 299.406 178.812 296.484 179.51C296.278 179.559 296.146 179.233 296.331 179.129L299.033 177.612ZM299.708 186.012C299.848 187.559 298.668 188.93 297.074 189.074C295.48 189.218 294.074 188.08 293.934 186.533C293.795 184.985 294.974 183.614 296.568 183.47C298.163 183.326 299.568 184.464 299.708 186.012ZM306.753 188.201C308.348 188.058 309.527 186.686 309.387 185.139C309.248 183.592 307.842 182.454 306.248 182.598C304.653 182.742 303.474 184.113 303.614 185.66C303.753 187.208 305.159 188.345 306.753 188.201Z" fill="#F27DFD"/>
<path fill-rule="evenodd" clip-rule="evenodd" d="M315.033 290.612C315.191 290.524 315.129 290.29 314.949 290.294C311.323 290.379 308.188 291.525 306.949 292.154C306.901 292.178 306.869 292.223 306.859 292.276C305.676 298.394 305.679 301.985 306.792 308.4C306.799 308.44 306.818 308.475 306.848 308.501C308.688 310.038 315.718 311.421 315.947 311.146C316.123 310.936 316.668 308.428 316.961 307.002C316.984 306.886 316.889 306.781 316.772 306.788C314.503 306.921 312.479 305.977 311.347 305.218C311.193 305.114 311.298 304.901 311.479 304.94C317.102 306.155 322.54 304.739 325.076 303.666C325.237 303.598 325.368 303.759 325.246 303.884C323.821 305.343 320.056 306.667 319.825 306.687C319.627 306.705 320.877 309.186 321.579 310.524C321.613 310.59 321.684 310.626 321.757 310.616C325.004 310.139 328.679 307.641 330.182 306.393C330.218 306.363 330.239 306.325 330.242 306.278C330.455 303.235 328.468 291.602 327.083 290.368C326.062 289.458 321.781 289.673 319.243 289.945C319.063 289.965 319.031 290.208 319.199 290.277L323.554 292.056C320.085 291.128 315.406 291.812 312.484 292.51C312.278 292.559 312.146 292.233 312.331 292.129L315.033 290.612ZM315.708 299.017C315.848 300.565 314.668 301.936 313.074 302.08C311.48 302.224 310.074 301.086 309.934 299.538C309.795 297.991 310.974 296.62 312.568 296.476C314.163 296.332 315.568 297.47 315.708 299.017ZM322.754 301.204C324.348 301.06 325.527 299.689 325.388 298.141C325.248 296.594 323.842 295.456 322.248 295.6C320.654 295.744 319.474 297.115 319.614 298.662C319.754 300.21 321.159 301.347 322.754 301.204Z" fill="#F27DFD"/>
<path fill-rule="evenodd" clip-rule="evenodd" d="M352.033 256.612C352.191 256.524 352.129 256.29 351.949 256.294C348.323 256.379 345.188 257.525 343.949 258.154C343.901 258.178 343.869 258.223 343.859 258.276C342.676 264.394 342.679 267.985 343.792 274.4C343.799 274.44 343.818 274.475 343.848 274.501C345.688 276.038 352.718 277.421 352.947 277.146C353.123 276.936 353.668 274.428 353.961 273.002C353.984 272.886 353.889 272.781 353.772 272.788C351.503 272.921 349.479 271.977 348.347 271.218C348.193 271.114 348.298 270.901 348.479 270.94C354.102 272.155 359.54 270.739 362.076 269.666C362.237 269.598 362.368 269.759 362.246 269.884C360.821 271.343 357.056 272.667 356.825 272.687C356.627 272.705 357.877 275.186 358.579 276.524C358.613 276.59 358.684 276.626 358.757 276.616C362.004 276.139 365.679 273.641 367.182 272.393C367.218 272.363 367.239 272.325 367.242 272.278C367.455 269.235 365.468 257.602 364.083 256.368C363.062 255.458 358.781 255.673 356.243 255.945C356.063 255.965 356.031 256.208 356.199 256.277L360.554 258.056C357.085 257.128 352.406 257.812 349.484 258.51C349.278 258.559 349.146 258.233 349.331 258.129L352.033 256.612ZM352.709 265.006C352.849 266.553 351.67 267.924 350.075 268.068C348.481 268.212 347.075 267.074 346.936 265.527C346.796 263.979 347.975 262.608 349.569 262.464C351.164 262.32 352.569 263.458 352.709 265.006ZM359.753 267.2C361.348 267.056 362.527 265.685 362.387 264.138C362.248 262.59 360.842 261.452 359.248 261.596C357.653 261.74 356.474 263.111 356.614 264.659C356.753 266.206 358.159 267.344 359.753 267.2Z" fill="#F27DFD"/>
<path fill-rule="evenodd" clip-rule="evenodd" d="M349.033 224.612C349.191 224.524 349.129 224.29 348.949 224.294C345.323 224.379 342.188 225.525 340.949 226.154C340.901 226.178 340.869 226.223 340.859 226.276C339.676 232.394 339.679 235.985 340.792 242.4C340.799 242.44 340.818 242.475 340.848 242.501C342.688 244.038 349.718 245.421 349.947 245.146C350.123 244.936 350.668 242.428 350.961 241.002C350.984 240.886 350.889 240.781 350.772 240.788C348.503 240.921 346.479 239.977 345.347 239.218C345.193 239.114 345.298 238.901 345.479 238.94C351.102 240.155 356.54 238.739 359.076 237.666C359.237 237.598 359.368 237.759 359.246 237.884C357.821 239.343 354.056 240.667 353.825 240.687C353.627 240.705 354.877 243.186 355.579 244.524C355.613 244.59 355.684 244.626 355.757 244.616C359.004 244.139 362.679 241.641 364.182 240.393C364.218 240.363 364.239 240.325 364.242 240.278C364.455 237.235 362.468 225.602 361.083 224.368C360.062 223.458 355.781 223.673 353.243 223.945C353.063 223.965 353.031 224.208 353.199 224.277L357.554 226.056C354.085 225.128 349.406 225.812 346.484 226.51C346.278 226.559 346.146 226.233 346.331 226.129L349.033 224.612ZM349.709 233.014C349.849 234.561 348.669 235.932 347.075 236.076C345.481 236.22 344.075 235.082 343.935 233.535C343.796 231.987 344.975 230.616 346.569 230.472C348.164 230.328 349.569 231.466 349.709 233.014ZM356.754 235.202C358.349 235.058 359.528 233.687 359.388 232.139C359.249 230.592 357.843 229.454 356.249 229.598C354.654 229.742 353.475 231.113 353.615 232.66C353.754 234.208 355.16 235.346 356.754 235.202Z" fill="#F27DFD"/>
<path fill-rule="evenodd" clip-rule="evenodd" d="M343.033 192.612C343.191 192.524 343.129 192.29 342.949 192.294C339.323 192.379 336.188 193.525 334.949 194.154C334.901 194.178 334.869 194.223 334.859 194.276C333.676 200.394 333.679 203.985 334.792 210.4C334.799 210.44 334.818 210.475 334.848 210.501C336.688 212.038 343.718 213.421 343.947 213.146C344.123 212.936 344.668 210.428 344.961 209.002C344.984 208.886 344.889 208.781 344.772 208.788C342.503 208.921 340.479 207.977 339.347 207.218C339.193 207.114 339.298 206.901 339.479 206.94C345.102 208.155 350.54 206.739 353.076 205.666C353.237 205.598 353.368 205.759 353.246 205.884C351.821 207.343 348.056 208.667 347.825 208.687C347.627 208.705 348.877 211.186 349.579 212.524C349.613 212.59 349.684 212.626 349.757 212.616C353.004 212.139 356.679 209.641 358.182 208.393C358.218 208.363 358.239 208.325 358.242 208.278C358.455 205.235 356.468 193.602 355.083 192.368C354.062 191.458 349.781 191.673 347.243 191.945C347.063 191.965 347.031 192.208 347.199 192.277L351.554 194.056C348.085 193.128 343.406 193.812 340.484 194.51C340.278 194.559 340.146 194.233 340.331 194.129L343.033 192.612ZM343.708 201.011C343.848 202.559 342.669 203.93 341.074 204.074C339.48 204.218 338.074 203.08 337.935 201.532C337.795 199.985 338.974 198.614 340.569 198.47C342.163 198.326 343.569 199.464 343.708 201.011ZM350.753 203.204C352.348 203.06 353.527 201.689 353.387 200.142C353.248 198.594 351.842 197.456 350.248 197.6C348.653 197.744 347.474 199.115 347.614 200.663C347.753 202.21 349.159 203.348 350.753 203.204Z" fill="#F27DFD"/>
<path fill-rule="evenodd" clip-rule="evenodd" d="M357.033 289.612C357.191 289.524 357.129 289.29 356.949 289.294C353.323 289.379 350.188 290.525 348.949 291.154C348.901 291.178 348.869 291.223 348.859 291.276C347.676 297.394 347.679 300.985 348.792 307.4C348.799 307.44 348.818 307.475 348.848 307.501C350.688 309.038 357.718 310.421 357.947 310.146C358.123 309.936 358.668 307.428 358.961 306.002C358.984 305.886 358.889 305.781 358.772 305.788C356.503 305.921 354.479 304.977 353.347 304.218C353.193 304.114 353.298 303.901 353.479 303.94C359.102 305.155 364.54 303.739 367.076 302.666C367.237 302.598 367.368 302.759 367.246 302.884C365.821 304.343 362.056 305.667 361.825 305.687C361.627 305.705 362.877 308.186 363.579 309.524C363.613 309.59 363.684 309.626 363.757 309.616C367.004 309.139 370.679 306.641 372.182 305.393C372.218 305.363 372.239 305.325 372.242 305.278C372.455 302.235 370.468 290.602 369.083 289.368C368.062 288.458 363.781 288.673 361.243 288.945C361.063 288.965 361.031 289.208 361.199 289.277L365.554 291.056C362.085 290.128 357.406 290.812 354.484 291.51C354.278 291.559 354.146 291.233 354.331 291.129L357.033 289.612ZM357.709 298.01C357.849 299.557 356.669 300.929 355.075 301.072C353.481 301.216 352.075 300.079 351.935 298.531C351.796 296.984 352.975 295.613 354.569 295.469C356.164 295.325 357.569 296.463 357.709 298.01ZM364.755 300.2C366.349 300.056 367.528 298.685 367.388 297.138C367.249 295.59 365.843 294.452 364.249 294.596C362.654 294.74 361.475 296.111 361.615 297.659C361.754 299.206 363.16 300.344 364.755 300.2Z" fill="#F27DFD"/>
<path fill-rule="evenodd" clip-rule="evenodd" d="M394.033 259.612C394.191 259.524 394.129 259.29 393.949 259.294C390.323 259.379 387.188 260.525 385.949 261.154C385.901 261.178 385.869 261.223 385.859 261.276C384.676 267.394 384.679 270.985 385.792 277.4C385.799 277.44 385.818 277.475 385.848 277.501C387.688 279.038 394.718 280.421 394.947 280.146C395.123 279.936 395.668 277.428 395.961 276.002C395.984 275.886 395.889 275.781 395.772 275.788C393.503 275.921 391.479 274.977 390.347 274.218C390.193 274.114 390.298 273.901 390.479 273.94C396.102 275.155 401.54 273.739 404.076 272.666C404.237 272.598 404.368 272.759 404.246 272.884C402.821 274.343 399.056 275.667 398.825 275.687C398.627 275.705 399.877 278.186 400.579 279.524C400.613 279.59 400.684 279.626 400.757 279.616C404.004 279.139 407.679 276.641 409.182 275.393C409.218 275.363 409.239 275.325 409.242 275.278C409.455 272.235 407.468 260.602 406.083 259.368C405.062 258.458 400.781 258.673 398.243 258.945C398.063 258.965 398.031 259.208 398.199 259.277L402.554 261.056C399.085 260.128 394.406 260.812 391.484 261.51C391.278 261.559 391.146 261.233 391.331 261.129L394.033 259.612ZM394.709 268.006C394.848 269.554 393.669 270.925 392.075 271.069C390.48 271.213 389.075 270.075 388.935 268.528C388.795 266.98 389.975 265.609 391.569 265.465C393.163 265.321 394.569 266.459 394.709 268.006ZM401.754 270.195C403.348 270.051 404.527 268.68 404.388 267.133C404.248 265.585 402.842 264.447 401.248 264.591C399.654 264.735 398.475 266.106 398.614 267.654C398.754 269.201 400.16 270.339 401.754 270.195Z" fill="#F27DFD"/>
<path fill-rule="evenodd" clip-rule="evenodd" d="M393.033 228.612C393.191 228.524 393.129 228.29 392.949 228.294C389.323 228.379 386.188 229.525 384.949 230.154C384.901 230.178 384.869 230.223 384.859 230.276C383.676 236.394 383.679 239.985 384.792 246.4C384.799 246.44 384.818 246.475 384.848 246.501C386.688 248.038 393.718 249.421 393.947 249.146C394.123 248.936 394.668 246.428 394.961 245.002C394.984 244.886 394.889 244.781 394.772 244.788C392.503 244.921 390.479 243.977 389.347 243.218C389.193 243.114 389.298 242.901 389.479 242.94C395.102 244.155 400.54 242.739 403.076 241.666C403.237 241.598 403.368 241.759 403.246 241.884C401.821 243.343 398.056 244.667 397.825 244.687C397.627 244.705 398.877 247.186 399.579 248.524C399.613 248.59 399.684 248.626 399.757 248.616C403.004 248.139 406.679 245.641 408.182 244.393C408.218 244.363 408.239 244.325 408.242 244.278C408.455 241.235 406.468 229.602 405.083 228.368C404.062 227.458 399.781 227.673 397.243 227.945C397.063 227.965 397.031 228.208 397.199 228.277L401.554 230.056C398.085 229.128 393.406 229.812 390.484 230.51C390.278 230.559 390.146 230.233 390.331 230.129L393.033 228.612ZM393.708 237.011C393.848 238.558 392.668 239.929 391.074 240.073C389.48 240.217 388.074 239.079 387.934 237.532C387.795 235.984 388.974 234.613 390.568 234.469C392.163 234.325 393.568 235.463 393.708 237.011ZM400.753 239.204C402.347 239.061 403.527 237.689 403.387 236.142C403.247 234.595 401.842 233.457 400.247 233.601C398.653 233.745 397.474 235.116 397.613 236.663C397.753 238.211 399.159 239.348 400.753 239.204Z" fill="#F27DFD"/>
<path fill-rule="evenodd" clip-rule="evenodd" d="M392.112 196.677C392.269 196.589 392.207 196.355 392.027 196.359C388.401 196.444 385.266 197.59 384.027 198.218C383.98 198.242 383.947 198.288 383.937 198.34C382.755 204.458 382.757 208.05 383.87 214.464C383.877 214.504 383.896 214.54 383.927 214.565C385.767 216.102 392.796 217.486 393.026 217.211C393.201 217 393.747 214.492 394.039 213.066C394.062 212.951 393.967 212.846 393.85 212.853C391.582 212.986 389.557 212.041 388.425 211.282C388.271 211.178 388.376 210.965 388.558 211.004C394.18 212.219 399.618 210.803 402.154 209.73C402.315 209.662 402.446 209.824 402.324 209.949C400.9 211.408 397.134 212.731 396.903 212.752C396.705 212.77 397.955 215.251 398.657 216.589C398.692 216.654 398.762 216.691 398.835 216.68C402.082 216.204 405.757 213.705 407.26 212.457C407.296 212.427 407.317 212.39 407.32 212.343C407.533 209.3 405.547 197.667 404.161 196.432C403.14 195.523 398.859 195.737 396.321 196.01C396.141 196.029 396.109 196.272 396.277 196.341L400.633 198.12C397.163 197.192 392.484 197.876 389.562 198.574C389.356 198.623 389.224 198.297 389.409 198.194L392.112 196.677ZM392.786 205.08C392.925 206.627 391.746 207.998 390.152 208.142C388.557 208.286 387.152 207.148 387.012 205.601C386.872 204.054 388.052 202.682 389.646 202.539C391.24 202.395 392.646 203.532 392.786 205.08ZM399.831 207.27C401.426 207.126 402.605 205.755 402.465 204.207C402.325 202.66 400.92 201.522 399.325 201.666C397.731 201.81 396.552 203.181 396.692 204.728C396.831 206.276 398.237 207.414 399.831 207.27Z" fill="#F27DFD"/>
<path fill-rule="evenodd" clip-rule="evenodd" d="M397.033 291.612C397.191 291.524 397.129 291.29 396.949 291.294C393.323 291.379 390.188 292.525 388.949 293.154C388.901 293.178 388.869 293.223 388.859 293.276C387.676 299.394 387.679 302.985 388.792 309.4C388.799 309.44 388.818 309.475 388.848 309.501C390.688 311.038 397.718 312.421 397.947 312.146C398.123 311.936 398.668 309.428 398.961 308.002C398.984 307.886 398.889 307.781 398.772 307.788C396.503 307.921 394.479 306.977 393.347 306.218C393.193 306.114 393.298 305.901 393.479 305.94C399.102 307.155 404.54 305.739 407.076 304.666C407.237 304.598 407.368 304.759 407.246 304.884C405.821 306.343 402.056 307.667 401.825 307.687C401.627 307.705 402.877 310.186 403.579 311.524C403.613 311.59 403.684 311.626 403.757 311.616C407.004 311.139 410.679 308.641 412.182 307.393C412.218 307.363 412.239 307.325 412.242 307.278C412.455 304.235 410.468 292.602 409.083 291.368C408.062 290.458 403.781 290.673 401.243 290.945C401.063 290.965 401.031 291.208 401.199 291.277L405.554 293.056C402.085 292.128 397.406 292.812 394.484 293.51C394.278 293.559 394.146 293.233 394.331 293.129L397.033 291.612ZM397.709 300.01C397.848 301.558 396.669 302.929 395.075 303.073C393.48 303.217 392.075 302.079 391.935 300.531C391.795 298.984 392.975 297.613 394.569 297.469C396.163 297.325 397.569 298.463 397.709 300.01ZM404.754 302.201C406.349 302.057 407.528 300.686 407.388 299.138C407.248 297.591 405.843 296.453 404.248 296.597C402.654 296.741 401.475 298.112 401.615 299.659C401.754 301.207 403.16 302.345 404.754 302.201Z" fill="#F27DFD"/>
</g>
</g>
<path d="M159.302 258.612C133.969 256.108 76.9268 242.096 74.7208 241.616C72.5149 241.136 69.0861 239.274 67.2806 228.827C65.1315 216.391 76.1831 144.663 88.8005 140.536C102.873 135.933 127.362 138.97 118.205 155.579C109.049 172.187 116.371 180.575 128.4 183.072C136.358 184.724 158.907 183.029 154.827 163.542C150.747 144.055 189.699 158.753 193.177 165.682C196.655 172.611 191.811 210.215 182.806 200.626C173.801 191.037 146.578 195.337 148.326 212.938C150.073 230.54 169.465 225.855 176.47 229.764C183.476 233.672 168.971 259.567 159.302 258.612Z" fill="#FF8B19" stroke="#FFC286" stroke-width="1.8"/>
<path d="M443.745 116.756L451.643 109.459C450.063 112.931 447.922 114.673 444.943 117.467C444.513 117.374 443.652 117.187 443.745 116.756Z" fill="#F04DEA"/>
<path d="M418.861 96.4678L419.347 98.3768L418.71 105.45C417.752 103.061 417.257 101.667 418.861 96.4678Z" fill="#F04DEA"/>
<path d="M416.408 103.599C412.466 105.145 404.496 108.22 404.151 108.145C400.539 109.598 398.332 111.012 395.431 113.01L400.745 115.518C401.334 114.314 401.792 113.685 403.136 112.813L418.71 105.451C417.333 105.152 416.602 104.091 416.408 103.599Z" fill="black" fill-opacity="0.09"/>
<path d="M419.346 98.3766C435.401 99.1637 438.283 92.1279 441.615 89.2452C443 89.0955 445.469 88.7092 442.868 91.7715C438.021 97.4794 425.858 101.596 419.346 98.3766Z" fill="#FFE868"/>
<path d="M437.855 71.3008C437.526 74.4745 439.39 75.9916 440.363 76.3534L441.411 75.6798C440.223 74.6703 437.85 72.3813 437.855 71.3008Z" fill="#FFE868"/>
<path d="M461.371 86.8867C459.431 89.4198 457.034 89.2425 456.079 88.8372L455.78 87.6279C457.336 87.7098 460.633 87.6761 461.371 86.8867Z" fill="#FFE868"/>
<path d="M174.171 46.4152L178.289 37.8449C178.37 38.163 178.326 39.7461 177.877 41.812C177.428 43.8779 175.219 45.7416 174.171 46.4152Z" fill="#F3D945"/>
<path d="M144.718 40.9147L144.25 32.7C144.045 32.9558 143.258 35.1888 143.315 37.004C143.371 38.8186 144.044 39.8662 144.717 40.9139L144.718 40.9147Z" fill="#F3D945"/>
<path d="M165.805 53.9119C168.044 52.5958 173.303 48.7516 174.171 46.4163C177.801 46.3042 182.663 39.6664 178.921 36.1482C180.381 33.347 180.487 29.7294 180.365 27.4306C180.209 26.0344 180.141 25.1775 180.141 25.1775C180.141 25.1775 180.293 26.0746 180.365 27.4306C180.792 31.2539 181.88 39.1212 184.051 44.5081C186.193 49.8207 189.282 57.1204 191.004 57.4948C192.725 57.8691 173.645 55.166 165.805 53.9119Z" fill="black" fill-opacity="0.09"/>
<path d="M174.172 46.4154C172.96 48.6759 167.913 52.4123 165.786 53.903L168.858 54.3286C169.853 53.1659 171.749 52.3436 173.237 50.7193C174.855 48.9526 177.196 45.0208 176.605 45.5922C175.692 46.4754 174.603 46.509 174.172 46.4154Z" fill="black" fill-opacity="0.05"/>
<path fill-rule="evenodd" clip-rule="evenodd" d="M174.228 15.6633L174.227 15.6623L174.229 15.6628C171.805 8.26505 162.285 8.57164 159.262 9.78228C154.733 10.3938 150.414 12.7797 147.475 16.5389C146.185 16.4873 145.001 17.3269 144.642 18.5945C141.02 18.6156 137.769 21.138 136.967 24.8245C136.272 28.0221 137.617 31.1884 140.13 32.9659C138.437 32.7065 136.578 31.4807 135.998 27.9996C134.998 34.9996 142.998 35.4996 145.498 34.4996C145.507 34.4621 145.511 34.4199 145.511 34.3739C146.664 34.2546 147.763 33.8826 148.737 33.3032C155.293 32.0551 164.908 28.0405 170.677 25.6316L170.678 25.6315L170.678 25.6315L170.682 25.6296L171.057 25.4732C169.485 26.9481 168.78 30.0565 169.451 33.3988C170.317 37.7117 173.146 40.781 175.769 40.2542C177.329 39.941 178.465 38.4275 178.948 36.3455C181.712 29.379 180.725 24.3691 178.954 21.0248C178.18 18.2312 176.819 15.0704 174.386 15.7919C174.3 15.7268 174.246 15.6842 174.228 15.6633Z" fill="#29345B"/>
<ellipse cx="226.545" cy="303.059" rx="19.3798" ry="20.6547" transform="rotate(12.2678 226.545 303.059)" fill="#F860F2"/>
<path d="M225.446 283.238C226.425 283.061 228.268 281.812 229.358 281.023C229.918 280.618 230.62 280.457 231.295 280.603C231.886 280.732 232.402 281.085 232.747 281.582C233.604 282.821 235.272 285.137 235.999 285.5C236.999 286 234.459 285.799 234.459 285.799L226.514 284.071C226.514 284.071 223.999 283.5 225.446 283.238Z" fill="#F860F2"/>
<path fill-rule="evenodd" clip-rule="evenodd" d="M205.067 311.399C205.076 311.04 204.887 310.704 204.591 310.502C203.006 309.423 202.15 307.455 202.582 305.466C202.846 304.253 203.543 303.246 204.475 302.571C204.936 302.238 205.115 301.579 204.939 301.038C204.751 300.463 204.708 299.832 204.846 299.198C205.115 297.962 206.002 297.019 207.113 296.625C207.381 296.529 207.615 296.344 207.735 296.085C210.954 289.123 218.673 285.073 226.48 286.77C232.186 288.011 236.574 292.025 238.537 297.091C238.662 297.413 238.954 297.639 239.295 297.692C239.483 297.721 239.671 297.756 239.859 297.797C241.851 298.23 243.552 299.275 244.808 300.691C245.041 300.953 245.396 301.067 245.745 301.037C246.09 301.007 246.445 301.027 246.801 301.105C248.703 301.518 249.909 303.395 249.496 305.297C249.259 306.387 248.541 307.248 247.613 307.707C247.3 307.862 247.057 308.143 246.994 308.487C246.975 308.591 246.954 308.696 246.932 308.8C246.439 311.067 245.154 312.958 243.43 314.245C243.129 314.469 242.979 314.846 243.043 315.215C243.24 316.355 243.225 317.551 242.964 318.751C241.878 323.743 236.952 326.91 231.96 325.824C230.759 325.563 229.664 325.079 228.708 324.426C228.398 324.215 227.993 324.194 227.664 324.375C225.778 325.409 223.524 325.793 221.257 325.3C218.785 324.762 216.76 323.282 215.478 321.319C215.289 321.029 214.96 320.858 214.614 320.869C213.869 320.892 213.11 320.825 212.35 320.66C207.942 319.702 204.957 315.748 205.067 311.399Z" fill="#1D275C"/>
<path d="M227.413 303.201C230.093 304.145 229.372 306.632 228.629 307.973C231.112 307.57 233.478 312.003 231.997 313.213C231.612 313.528 229.303 309.021 228.629 307.973L221.425 310.013C222.368 307.333 227.257 307.374 228.629 307.973L227.413 303.201Z" fill="#2D3A83"/>
<path d="M241.709 301.801C243.595 302.463 243.091 304.199 242.57 305.134C244.317 304.855 245.986 307.953 244.946 308.796C244.675 309.016 243.045 305.866 242.57 305.134L237.504 306.549C238.164 304.679 241.604 304.714 242.57 305.134L241.709 301.801Z" fill="#2D3A83"/>
<path d="M205.575 302.057C206.761 300.875 209.917 300.746 211.077 303.704C208.355 301.989 208.414 302.361 205.575 302.057Z" fill="#2D3A83"/>
<path d="M209.091 312.456C208.166 308.634 211.299 303.528 218.024 306.696C211.935 308.034 212.687 308.568 209.091 312.456Z" fill="#2D3A83"/>
<path d="M210.252 296.099C212.956 293.849 218.291 294.35 218.402 300.998C214.925 296.638 214.793 297.453 210.252 296.099Z" fill="#2D3A83"/>
<path d="M216.267 317.559C216.685 315.114 219.775 312.936 222.882 316.451C219.02 315.706 219.322 316.203 216.267 317.559Z" fill="#2D3A83"/>
<path d="M227.103 315.381C229.576 315.176 232.455 317.626 229.826 321.511C229.584 317.585 229.178 318.002 227.103 315.381Z" fill="#2D3A83"/>
<path d="M236.211 305.687C234.286 304.122 233.904 300.361 238.491 299.378C235.948 302.379 236.529 302.359 236.211 305.687Z" fill="#2D3A83"/>
<path d="M242.125 313.977C240.02 315.291 236.339 314.429 236.899 309.772C238.911 313.153 239.081 312.596 242.125 313.977Z" fill="#2D3A83"/>
<path d="M223.714 297.719C223.524 295.245 225.992 292.381 229.861 295.034C225.933 295.252 226.347 295.661 223.714 297.719Z" fill="#2D3A83"/>
<path d="M207.224 296.557C196.236 292.365 194.743 276.565 195.305 270.527C189.672 281.923 191.498 286.502 192.498 289.502C193.497 292.502 199.882 299.919 204.716 301.872L204.809 301.441C204.031 298.387 206.095 296.913 207.224 296.557Z" fill="#F3D945"/>
<path d="M248.431 301.909C262.216 303.132 270.894 290.107 273 284.5C269 300.499 270.5 295.5 267 301C263.5 306.5 252.766 310.529 246.653 310.087L247.121 307.935C250.602 306.438 249.494 302.732 248.431 301.909Z" fill="#F7DE53"/>
<path d="M159.299 258.619C168.968 259.575 183.473 233.68 176.468 229.771C169.462 225.863 150.071 230.548 148.323 212.946C146.575 195.344 173.798 191.045 182.803 200.634C191.809 210.223 196.653 172.618 193.175 165.689C189.696 158.761 150.744 144.063 154.824 163.55C158.905 183.037 136.356 184.732 128.397 183.08C116.368 180.583 109.046 172.195 118.202 155.586C127.359 138.978 102.87 135.941 88.7978 140.543" stroke="#FFC286" stroke-width="1.7618"/>
<path d="M302.243 287.896C293.05 284.75 290.607 255.17 298.603 254.523C306.6 253.876 322.294 266.191 331.194 250.904C340.093 235.618 317.113 220.402 304.939 225.386C292.765 230.369 303.974 194.149 310.016 189.29C316.057 184.431 357.595 187.235 345.791 203.268C333.988 219.302 353.796 230.207 361.722 232.009C373.702 234.733 383.846 230.143 382.413 211.232C380.98 192.32 406.821 199.876 413.125 211.711" stroke="#F8ACFF" stroke-width="1.7618"/>
<path d="M386.831 63.8128C387.688 62.323 389.952 62.8154 390.113 64.5263L390.524 68.9108C390.564 69.3377 390.759 69.7353 391.071 70.0292L394.7 73.4449C395.668 74.3559 395.317 75.9697 394.059 76.3964L389.338 77.9966C388.932 78.1342 388.59 78.4153 388.377 78.787L386.182 82.6047C385.325 84.0945 383.061 83.6021 382.9 81.8912L382.489 77.5067C382.449 77.0798 382.255 76.6822 381.942 76.3883L378.313 72.9726C377.345 72.0617 377.696 70.4478 378.955 70.0211L383.675 68.421C384.081 68.2833 384.423 68.0023 384.637 67.6305L386.831 63.8128Z" fill="white"/>
<path d="M48.0541 43.1585C48.9106 41.6687 51.1751 42.1611 51.3356 43.872L51.7469 48.2565C51.787 48.6834 51.9813 49.081 52.2936 49.3749L55.923 52.7906C56.891 53.7016 56.54 55.3154 55.2812 55.7421L50.5611 57.3423C50.155 57.4799 49.8131 57.761 49.5994 58.1327L47.4045 61.9505C46.548 63.4402 44.2835 62.9478 44.123 61.2369L43.7117 56.8524C43.6717 56.4255 43.4773 56.0279 43.165 55.734L39.5356 52.3183C38.5677 51.4074 38.9186 49.7936 40.1774 49.3668L44.8975 47.7667C45.3036 47.629 45.6455 47.348 45.8592 46.9762L48.0541 43.1585Z" fill="white"/>
<path d="M172.894 272.412C173.75 270.923 176.015 271.415 176.175 273.126L176.587 277.51C176.627 277.937 176.821 278.335 177.133 278.629L180.763 282.045C181.731 282.955 181.38 284.569 180.121 284.996L175.401 286.596C174.995 286.734 174.653 287.015 174.439 287.387L172.244 291.204C171.388 292.694 169.123 292.202 168.963 290.491L168.552 286.106C168.512 285.679 168.317 285.282 168.005 284.988L164.375 281.572C163.408 280.661 163.758 279.047 165.017 278.621L169.737 277.021C170.143 276.883 170.485 276.602 170.699 276.23L172.894 272.412Z" fill="white"/>
<path d="M365.531 46.2726C366.05 45.3697 367.422 45.6682 367.519 46.7051L367.769 49.3623C367.793 49.621 367.911 49.862 368.1 50.0401L370.3 52.1103C370.886 52.6624 370.674 53.6404 369.911 53.8991L367.05 54.8688C366.804 54.9523 366.597 55.1226 366.467 55.3479L365.137 57.6617C364.618 58.5646 363.245 58.2661 363.148 57.2292L362.899 54.572C362.875 54.3132 362.757 54.0722 362.568 53.8941L360.368 51.824C359.781 51.2719 359.994 50.2939 360.757 50.0352L363.618 49.0654C363.864 48.982 364.071 48.8117 364.2 48.5864L365.531 46.2726Z" fill="white"/>
<path d="M194.703 6.38002C195.222 5.47715 196.594 5.77557 196.691 6.81247L196.941 9.46972C196.965 9.72846 197.083 9.96946 197.272 10.1476L199.472 12.2177C200.058 12.7698 199.846 13.7478 199.083 14.0065L196.222 14.9763C195.976 15.0597 195.769 15.23 195.639 15.4553L194.309 17.7691C193.79 18.672 192.417 18.3735 192.32 17.3367L192.071 14.6794C192.047 14.4207 191.929 14.1797 191.739 14.0016L189.54 11.9314C188.953 11.3794 189.166 10.4013 189.929 10.1426L192.789 9.17286C193.036 9.08943 193.243 8.91911 193.372 8.69382L194.703 6.38002Z" fill="white"/>
<path d="M184.769 300.808C185.288 299.905 186.66 300.203 186.758 301.24L187.007 303.897C187.031 304.156 187.149 304.397 187.338 304.575L189.538 306.645C190.125 307.198 189.912 308.176 189.149 308.434L186.288 309.404C186.042 309.487 185.835 309.658 185.705 309.883L184.375 312.197C183.856 313.1 182.484 312.801 182.386 311.764L182.137 309.107C182.113 308.848 181.995 308.607 181.806 308.429L179.606 306.359C179.02 305.807 179.232 304.829 179.995 304.57L182.856 303.601C183.102 303.517 183.309 303.347 183.439 303.122L184.769 300.808Z" fill="white"/>
<circle cx="285.24" cy="296.389" r="3.96404" transform="rotate(12.2678 285.24 296.389)" stroke="#71F3A7" stroke-width="1.7618"/>
<circle cx="118.111" cy="20.2559" r="3.96404" transform="rotate(12.2678 118.111 20.2559)" stroke="#71F3A7" stroke-width="1.7618"/>
<circle cx="444.525" cy="229.09" r="10.6223" transform="rotate(12.2678 444.525 229.09)" stroke="#71F3A7" stroke-width="4.72103"/>
<circle cx="278.952" cy="310.799" r="3.52359" transform="rotate(12.2678 278.952 310.799)" fill="#71F3A7"/>
<circle cx="220.132" cy="46.4965" r="3.52359" transform="rotate(12.2678 220.132 46.4965)" fill="#71F3A7"/>
<circle cx="301.969" cy="298.221" r="2.20225" transform="rotate(12.2678 301.969 298.221)" fill="#71F3A7"/>
<circle cx="133.27" cy="12.7351" r="2.20225" transform="rotate(12.2678 133.27 12.7351)" fill="#71F3A7"/>
<circle cx="25.1567" cy="8.30544" r="2.20225" transform="rotate(12.2678 25.1567 8.30544)" fill="#71F3A7"/>
<circle cx="365.493" cy="84.866" r="2.20225" transform="rotate(12.2678 365.493 84.866)" fill="#71F3A7"/>
<circle cx="445.918" cy="142.016" r="2.20225" transform="rotate(12.2678 445.918 142.016)" fill="#71F3A7"/>
<circle cx="452.317" cy="197.592" r="3.33646" transform="rotate(12.2678 452.317 197.592)" fill="#71F3A7"/>
<circle cx="470.894" cy="211.629" r="7.29438" transform="rotate(12.2678 470.894 211.629)" fill="#71F3A7"/>
<mask id="mask2_3556_84388" style="mask-type:alpha" maskUnits="userSpaceOnUse" x="68" y="139" width="126" height="119">
<path d="M159.782 257.778C134.894 255.344 78.8696 241.568 76.7029 241.097C74.5361 240.625 71.1703 238.787 69.4151 228.442C67.6598 218.098 67.801 202.358 74.0019 180.501C77.2605 169.015 79.502 148.998 89.0019 141.998C98.5019 134.999 126.029 141.521 117.002 157.988C107.975 174.455 117.738 182.048 129.554 184.499C137.37 186.121 159.53 182.915 155.556 163.62C151.582 144.326 189.097 160.142 192.502 166.999C195.907 173.856 191.813 208.981 182.982 199.499C174.15 190.018 146.502 193.999 147.502 212.499C148.502 230.999 170.656 227.499 176.002 230.499C181.348 233.499 169.281 258.707 159.782 257.778Z" fill="#FF8B19"/>
</mask>
<g mask="url(#mask2_3556_84388)">
<g style="mix-blend-mode:overlay" clip-path="url(#clip0_3556_84388)">
<path d="M125.624 124.713C125.544 124.7 125.463 124.73 125.411 124.793L115.202 137.229C115.122 137.327 115.136 137.47 115.234 137.55L118.848 140.517C118.945 140.597 119.089 140.583 119.169 140.486L131.093 125.961C131.205 125.825 131.127 125.619 130.954 125.591L125.624 124.713Z" fill="#FFC286"/>
<path d="M123.223 128.18L137.45 130.566C137.969 130.653 138.2 131.269 137.866 131.675L135.259 134.85C135.053 135.102 134.727 135.225 134.405 135.172L119.611 132.727L119.611 132.728C119.245 132.656 118.853 132.782 118.6 133.09L122.367 128.501C122.575 128.249 122.901 128.126 123.223 128.18Z" fill="#FFC286"/>
<path d="M134.852 134.436C134.851 134.441 134.85 134.445 134.849 134.448L134.851 134.448C134.834 134.622 134.767 134.793 134.648 134.938C134.569 135.035 134.474 135.111 134.37 135.166L134.409 135.173C134.73 135.225 135.056 135.103 135.262 134.851L135.506 134.555L135.506 134.555L138.064 131.439C138.254 131.207 138.319 130.896 138.236 130.608L135.874 122.379C135.861 122.334 135.835 122.295 135.799 122.265L130.716 118.093C130.542 117.95 130.289 118.117 130.353 118.333C130.498 118.822 130.649 119.328 130.803 119.846C132.64 126.02 134.967 133.84 134.853 134.431L134.853 134.431C134.852 134.433 134.852 134.435 134.852 134.436Z" fill="#FFC286"/>
</g>
<g style="mix-blend-mode:overlay" clip-path="url(#clip1_3556_84388)">
<path d="M133.085 157.756C133.005 157.743 132.924 157.773 132.872 157.836L122.663 170.272C122.583 170.37 122.597 170.513 122.695 170.593L126.309 173.56C126.406 173.64 126.55 173.626 126.63 173.529L138.554 159.004C138.666 158.868 138.588 158.662 138.415 158.634L133.085 157.756Z" fill="#FFC286"/>
<path d="M130.684 161.223L144.911 163.609C145.43 163.696 145.661 164.312 145.327 164.718L142.72 167.893C142.513 168.145 142.188 168.268 141.866 168.215L127.072 165.77L127.072 165.771C126.706 165.699 126.314 165.825 126.061 166.133L129.828 161.544C130.035 161.292 130.362 161.169 130.684 161.223Z" fill="#FFC286"/>
<path d="M142.313 167.479C142.312 167.484 142.311 167.488 142.31 167.491L142.312 167.491C142.295 167.665 142.228 167.836 142.109 167.981C142.03 168.078 141.935 168.154 141.831 168.209L141.87 168.216C142.191 168.268 142.517 168.146 142.723 167.894L142.967 167.598L142.967 167.598L145.525 164.482C145.715 164.25 145.779 163.939 145.697 163.651L143.335 155.422C143.322 155.377 143.296 155.338 143.26 155.308L138.177 151.136C138.003 150.993 137.749 151.16 137.814 151.376C137.959 151.865 138.11 152.371 138.264 152.889C140.101 159.063 142.428 166.883 142.314 167.474L142.313 167.474C142.313 167.476 142.313 167.478 142.313 167.479Z" fill="#FFC286"/>
</g>
<g style="mix-blend-mode:overlay" clip-path="url(#clip2_3556_84388)">
<path d="M156.995 178.432C156.915 178.419 156.834 178.449 156.782 178.512L146.573 190.948C146.493 191.045 146.507 191.189 146.605 191.269L150.219 194.236C150.316 194.316 150.46 194.302 150.54 194.205L162.464 179.679C162.576 179.544 162.498 179.338 162.325 179.31L156.995 178.432Z" fill="#FFC286"/>
<path d="M154.594 181.899L168.821 184.285C169.34 184.372 169.571 184.987 169.237 185.394L166.63 188.569C166.424 188.821 166.098 188.944 165.776 188.89L150.982 186.446L150.982 186.446C150.617 186.375 150.225 186.501 149.971 186.809L153.738 182.22C153.946 181.967 154.272 181.845 154.594 181.899Z" fill="#FFC286"/>
<path d="M166.223 188.155C166.222 188.16 166.221 188.163 166.22 188.167L166.222 188.167C166.205 188.341 166.138 188.512 166.019 188.657C165.94 188.754 165.845 188.83 165.741 188.885L165.78 188.891C166.101 188.944 166.427 188.822 166.633 188.57L166.877 188.273L166.877 188.273L169.435 185.158C169.625 184.926 169.69 184.615 169.607 184.327L167.245 176.098C167.232 176.053 167.206 176.014 167.17 175.984L162.087 171.811C161.913 171.669 161.66 171.836 161.724 172.051C161.869 172.541 162.02 173.047 162.174 173.565C164.011 179.738 166.338 187.559 166.224 188.15L166.224 188.15C166.223 188.151 166.223 188.153 166.223 188.155Z" fill="#FFC286"/>
</g>
<g style="mix-blend-mode:overlay" clip-path="url(#clip3_3556_84388)">
<path d="M188.007 187.539C187.927 187.526 187.845 187.557 187.794 187.62L177.585 200.055C177.505 200.153 177.519 200.297 177.616 200.377L181.231 203.344C181.328 203.424 181.472 203.409 181.552 203.312L193.476 188.787C193.587 188.651 193.51 188.446 193.337 188.417L188.007 187.539Z" fill="#FFC286"/>
<path d="M185.606 191.006L199.833 193.392C200.352 193.479 200.583 194.095 200.249 194.501L197.642 197.677C197.435 197.928 197.11 198.051 196.788 197.998L181.993 195.553L181.994 195.554C181.628 195.482 181.236 195.609 180.983 195.916L184.75 191.327C184.957 191.075 185.284 190.952 185.606 191.006Z" fill="#FFC286"/>
<path d="M197.235 197.263C197.234 197.267 197.233 197.271 197.231 197.274L197.234 197.275C197.217 197.448 197.15 197.619 197.031 197.765C196.952 197.861 196.857 197.937 196.753 197.992L196.792 197.999C197.113 198.052 197.438 197.929 197.645 197.677L197.889 197.381L197.889 197.381L200.447 194.265C200.637 194.033 200.701 193.723 200.619 193.434L198.256 185.205C198.244 185.16 198.218 185.121 198.182 185.092L193.099 180.919C192.925 180.776 192.671 180.943 192.735 181.159C192.881 181.648 193.031 182.154 193.186 182.672C195.023 188.846 197.35 196.666 197.236 197.257L197.235 197.257C197.235 197.259 197.235 197.261 197.235 197.263Z" fill="#FFC286"/>
</g>
<g style="mix-blend-mode:overlay" clip-path="url(#clip4_3556_84388)">
<path d="M99.929 150.822C99.8486 150.809 99.7673 150.84 99.7156 150.903L89.5067 163.339C89.4268 163.436 89.4409 163.58 89.5383 163.66L93.1527 166.627C93.2501 166.707 93.3938 166.693 93.4737 166.595L105.398 152.07C105.509 151.934 105.432 151.729 105.259 151.7L99.929 150.822Z" fill="#FFC286"/>
<path d="M97.528 154.29L111.755 156.675C112.274 156.762 112.504 157.378 112.171 157.785L109.564 160.96C109.357 161.212 109.032 161.334 108.71 161.281L93.9153 158.836L93.9157 158.837C93.5502 158.766 93.1581 158.892 92.9049 159.199L96.6719 154.611C96.8792 154.358 97.2058 154.236 97.528 154.29Z" fill="#FFC286"/>
<path d="M109.157 160.546C109.156 160.55 109.155 160.554 109.153 160.557L109.156 160.558C109.139 160.732 109.072 160.903 108.953 161.048C108.873 161.144 108.778 161.22 108.675 161.275L108.714 161.282C109.035 161.335 109.36 161.212 109.567 160.961L109.81 160.664L109.811 160.664L112.369 157.548C112.559 157.316 112.623 157.006 112.54 156.718L110.178 148.488C110.166 148.444 110.14 148.404 110.104 148.375L105.021 144.202C104.847 144.059 104.593 144.226 104.657 144.442C104.803 144.931 104.953 145.438 105.107 145.955C106.945 152.129 109.272 159.949 109.158 160.54L109.157 160.54C109.157 160.542 109.157 160.544 109.157 160.546Z" fill="#FFC286"/>
</g>
<g style="mix-blend-mode:overlay" clip-path="url(#clip5_3556_84388)">
<path d="M107.39 183.863C107.31 183.85 107.228 183.881 107.177 183.944L96.9677 196.38C96.8877 196.477 96.9019 196.621 96.9992 196.701L100.614 199.668C100.711 199.748 100.855 199.734 100.935 199.636L112.859 185.111C112.97 184.975 112.893 184.77 112.719 184.741L107.39 183.863Z" fill="#FFC286"/>
<path d="M104.989 187.331L119.216 189.716C119.735 189.803 119.965 190.419 119.632 190.826L117.025 194.001C116.818 194.253 116.493 194.375 116.171 194.322L101.376 191.877L101.377 191.878C101.011 191.807 100.619 191.933 100.366 192.24L104.133 187.652C104.34 187.399 104.667 187.277 104.989 187.331Z" fill="#FFC286"/>
<path d="M116.618 193.587C116.617 193.591 116.616 193.595 116.614 193.598L116.617 193.599C116.6 193.773 116.533 193.944 116.414 194.089C116.334 194.185 116.239 194.262 116.135 194.316L116.175 194.323C116.496 194.376 116.821 194.253 117.028 194.002L117.271 193.705L117.272 193.705L119.83 190.589C120.02 190.357 120.084 190.047 120.001 189.759L117.639 181.529C117.627 181.485 117.601 181.445 117.565 181.416L112.482 177.243C112.308 177.1 112.054 177.268 112.118 177.483C112.264 177.972 112.414 178.479 112.568 178.996C114.406 185.17 116.733 192.99 116.619 193.581L116.618 193.581C116.618 193.583 116.618 193.585 116.618 193.587Z" fill="#FFC286"/>
</g>
<g style="mix-blend-mode:overlay" clip-path="url(#clip6_3556_84388)">
<path d="M131.3 204.541C131.22 204.528 131.138 204.559 131.087 204.622L120.878 217.057C120.798 217.155 120.812 217.299 120.909 217.378L124.524 220.346C124.621 220.426 124.765 220.411 124.845 220.314L136.769 205.789C136.88 205.653 136.803 205.448 136.63 205.419L131.3 204.541Z" fill="#FFC286"/>
<path d="M128.899 208.008L143.126 210.394C143.645 210.481 143.875 211.097 143.542 211.503L140.935 214.678C140.728 214.93 140.403 215.053 140.081 215L125.286 212.555L125.287 212.556C124.921 212.484 124.529 212.61 124.276 212.918L128.043 208.329C128.25 208.077 128.577 207.954 128.899 208.008Z" fill="#FFC286"/>
<path d="M140.528 214.265C140.527 214.269 140.526 214.273 140.524 214.276L140.527 214.276C140.51 214.45 140.443 214.621 140.324 214.767C140.245 214.863 140.15 214.939 140.046 214.994L140.085 215.001C140.406 215.054 140.731 214.931 140.938 214.679L141.181 214.383L141.182 214.383L143.74 211.267C143.93 211.035 143.994 210.725 143.912 210.436L141.549 202.207C141.537 202.162 141.511 202.123 141.475 202.094L136.392 197.921C136.218 197.778 135.964 197.945 136.028 198.161C136.174 198.65 136.324 199.156 136.479 199.674C138.316 205.848 140.643 213.668 140.529 214.259L140.528 214.259C140.528 214.261 140.528 214.263 140.528 214.265Z" fill="#FFC286"/>
</g>
<g style="mix-blend-mode:overlay" clip-path="url(#clip7_3556_84388)">
<path d="M162.308 213.651C162.228 213.637 162.146 213.668 162.094 213.731L151.886 226.167C151.806 226.264 151.82 226.408 151.917 226.488L155.532 229.455C155.629 229.535 155.773 229.521 155.853 229.423L167.777 214.898C167.888 214.762 167.811 214.557 167.637 214.528L162.308 213.651Z" fill="#FFC286"/>
<path d="M159.907 217.118L174.134 219.504C174.653 219.591 174.883 220.206 174.55 220.613L171.943 223.788C171.736 224.04 171.411 224.162 171.089 224.109L156.294 221.664L156.295 221.665C155.929 221.594 155.537 221.72 155.284 222.027L159.051 217.439C159.258 217.186 159.585 217.064 159.907 217.118Z" fill="#FFC286"/>
<path d="M171.536 223.374C171.535 223.378 171.533 223.382 171.532 223.385L171.535 223.386C171.518 223.56 171.451 223.731 171.332 223.876C171.252 223.973 171.157 224.049 171.053 224.104L171.093 224.11C171.414 224.163 171.739 224.04 171.946 223.789L172.189 223.492L172.19 223.492L174.748 220.376C174.938 220.145 175.002 219.834 174.919 219.546L172.557 211.316C172.545 211.272 172.519 211.232 172.483 211.203L167.4 207.03C167.226 206.888 166.972 207.055 167.036 207.27C167.182 207.76 167.332 208.266 167.486 208.784C169.324 214.957 171.651 222.777 171.537 223.368L171.536 223.368C171.536 223.37 171.536 223.372 171.536 223.374Z" fill="#FFC286"/>
</g>
<g style="mix-blend-mode:overlay" clip-path="url(#clip8_3556_84388)">
<path d="M72.8079 178.383C72.7275 178.37 72.6462 178.4 72.5945 178.463L62.3856 190.899C62.3057 190.997 62.3198 191.14 62.4172 191.22L66.0316 194.187C66.129 194.267 66.2727 194.253 66.3526 194.156L78.2767 179.631C78.3882 179.495 78.3108 179.289 78.1375 179.261L72.8079 178.383Z" fill="#FFC286"/>
<path d="M70.4069 181.85L84.6338 184.236C85.1526 184.323 85.3833 184.939 85.0495 185.345L82.443 188.52C82.2361 188.772 81.9106 188.895 81.589 188.842L66.7942 186.397L66.7946 186.398C66.4291 186.326 66.037 186.452 65.7838 186.76L69.5508 182.171C69.7581 181.918 70.0847 181.796 70.4069 181.85Z" fill="#FFC286"/>
<path d="M82.0357 188.106C82.0347 188.111 82.0335 188.115 82.0322 188.118L82.0346 188.118C82.0177 188.292 81.9508 188.463 81.8317 188.608C81.7524 188.705 81.6574 188.781 81.5534 188.836L81.5925 188.842C81.914 188.895 82.2392 188.773 82.4459 188.521L82.6893 188.225L82.6897 188.225L85.2476 185.109C85.4379 184.877 85.5021 184.566 85.4194 184.278L83.0573 176.049C83.0445 176.004 83.0185 175.965 82.9828 175.935L77.8998 171.763C77.726 171.62 77.4721 171.787 77.5362 172.003C77.6816 172.492 77.8323 172.998 77.9864 173.516C79.8236 179.69 82.1507 187.51 82.0369 188.101L82.0361 188.101C82.036 188.103 82.0358 188.105 82.0357 188.106Z" fill="#FFC286"/>
</g>
<g style="mix-blend-mode:overlay" clip-path="url(#clip9_3556_84388)">
<path d="M80.261 211.426C80.1806 211.413 80.0993 211.443 80.0476 211.506L69.8388 223.942C69.7588 224.04 69.773 224.183 69.8703 224.263L73.4847 227.23C73.5821 227.31 73.7258 227.296 73.8058 227.199L85.7298 212.674C85.8413 212.538 85.7639 212.332 85.5906 212.304L80.261 211.426Z" fill="#FFC286"/>
<path d="M77.86 214.893L92.0869 217.279C92.6057 217.366 92.8364 217.981 92.5026 218.388L89.8961 221.563C89.6892 221.815 89.3637 221.938 89.0421 221.885L74.2474 219.44L74.2477 219.441C73.8822 219.369 73.4902 219.495 73.2369 219.803L77.0039 215.214C77.2112 214.961 77.5378 214.839 77.86 214.893Z" fill="#FFC286"/>
<path d="M89.4888 221.149C89.4878 221.154 89.4866 221.157 89.4853 221.161L89.4877 221.161C89.4709 221.335 89.404 221.506 89.2848 221.651C89.2055 221.748 89.1105 221.824 89.0065 221.879L89.0457 221.885C89.3671 221.938 89.6923 221.816 89.899 221.564L90.1424 221.268L90.1428 221.268L92.7007 218.152C92.891 217.92 92.9552 217.609 92.8725 217.321L90.5104 209.092C90.4976 209.047 90.4716 209.008 90.4359 208.978L85.3529 204.806C85.1791 204.663 84.9252 204.83 84.9893 205.046C85.1348 205.535 85.2854 206.041 85.4395 206.559C87.2767 212.733 89.6039 220.553 89.49 221.144L89.4893 221.144C89.4891 221.146 89.489 221.148 89.4888 221.149Z" fill="#FFC286"/>
</g>
<g style="mix-blend-mode:overlay" clip-path="url(#clip10_3556_84388)">
<path d="M104.171 232.104C104.091 232.09 104.009 232.121 103.958 232.184L93.7489 244.62C93.669 244.717 93.6831 244.861 93.7805 244.941L97.3949 247.908C97.4922 247.988 97.636 247.974 97.7159 247.877L109.64 233.351C109.751 233.216 109.674 233.01 109.501 232.981L104.171 232.104Z" fill="#FFC286"/>
<path d="M101.77 235.571L115.997 237.957C116.516 238.044 116.747 238.659 116.413 239.066L113.806 242.241C113.599 242.493 113.274 242.615 112.952 242.562L98.1575 240.118L98.1578 240.118C97.7924 240.047 97.4003 240.173 97.1471 240.48L100.914 235.892C101.121 235.639 101.448 235.517 101.77 235.571Z" fill="#FFC286"/>
<path d="M113.399 241.827C113.398 241.831 113.397 241.835 113.395 241.839L113.398 241.839C113.381 242.013 113.314 242.184 113.195 242.329C113.116 242.426 113.021 242.502 112.917 242.557L112.956 242.563C113.277 242.616 113.602 242.494 113.809 242.242L114.053 241.945L114.053 241.945L116.611 238.829C116.801 238.598 116.865 238.287 116.783 237.999L114.421 229.769C114.408 229.725 114.382 229.685 114.346 229.656L109.263 225.483C109.089 225.341 108.835 225.508 108.899 225.723C109.045 226.213 109.196 226.719 109.35 227.237C111.187 233.41 113.514 241.23 113.4 241.822L113.399 241.821C113.399 241.823 113.399 241.825 113.399 241.827Z" fill="#FFC286"/>
</g>
<g style="mix-blend-mode:overlay" clip-path="url(#clip11_3556_84388)">
<path d="M135.191 241.209C135.11 241.196 135.029 241.227 134.977 241.29L124.768 253.725C124.689 253.823 124.703 253.967 124.8 254.046L128.414 257.014C128.512 257.094 128.656 257.079 128.735 256.982L140.66 242.457C140.771 242.321 140.694 242.116 140.52 242.087L135.191 241.209Z" fill="#FFC286"/>
<path d="M132.79 244.676L147.017 247.062C147.535 247.149 147.766 247.765 147.432 248.171L144.826 251.346C144.619 251.598 144.293 251.721 143.972 251.668L129.177 249.223L129.177 249.224C128.812 249.152 128.42 249.278 128.167 249.586L131.934 244.997C132.141 244.745 132.467 244.622 132.79 244.676Z" fill="#FFC286"/>
<path d="M144.418 250.933C144.417 250.937 144.416 250.941 144.415 250.944L144.417 250.944C144.401 251.118 144.334 251.289 144.214 251.435C144.135 251.531 144.04 251.607 143.936 251.662L143.975 251.669C144.297 251.721 144.622 251.599 144.829 251.347L145.072 251.051L145.073 251.051L147.63 247.935C147.821 247.703 147.885 247.393 147.802 247.104L145.44 238.875C145.427 238.83 145.401 238.791 145.366 238.761L140.283 234.589C140.109 234.446 139.855 234.613 139.919 234.829C140.064 235.318 140.215 235.824 140.369 236.342C142.206 242.516 144.534 250.336 144.42 250.927L144.419 250.927C144.419 250.929 144.419 250.931 144.418 250.933Z" fill="#FFC286"/>
</g>
</g>
<path d="M488.226 238L459.852 252.812L499.109 298.849L488.226 238Z" fill="#FFE868"/>
<path d="M466.189 270.916L455.381 284.798L485.522 298.765L466.189 270.916Z" fill="#FFE868"/>
<defs>
<clipPath id="clip0_3556_84388">
<rect width="34.2167" height="34.2167" fill="white" transform="translate(126.102 107.957) rotate(39.3833)"/>
</clipPath>
<clipPath id="clip1_3556_84388">
<rect width="34.2167" height="34.2167" fill="white" transform="translate(133.562 141) rotate(39.3833)"/>
</clipPath>
<clipPath id="clip2_3556_84388">
<rect width="34.2167" height="34.2167" fill="white" transform="translate(157.473 161.676) rotate(39.3833)"/>
</clipPath>
<clipPath id="clip3_3556_84388">
<rect width="34.2167" height="34.2167" fill="white" transform="translate(188.484 170.783) rotate(39.3833)"/>
</clipPath>
<clipPath id="clip4_3556_84388">
<rect width="34.2167" height="34.2167" fill="white" transform="translate(100.406 134.066) rotate(39.3833)"/>
</clipPath>
<clipPath id="clip5_3556_84388">
<rect width="34.2167" height="34.2167" fill="white" transform="translate(107.867 167.107) rotate(39.3833)"/>
</clipPath>
<clipPath id="clip6_3556_84388">
<rect width="34.2167" height="34.2167" fill="white" transform="translate(131.777 187.785) rotate(39.3833)"/>
</clipPath>
<clipPath id="clip7_3556_84388">
<rect width="34.2167" height="34.2167" fill="white" transform="translate(162.785 196.895) rotate(39.3833)"/>
</clipPath>
<clipPath id="clip8_3556_84388">
<rect width="34.2167" height="34.2167" fill="white" transform="translate(73.2852 161.627) rotate(39.3833)"/>
</clipPath>
<clipPath id="clip9_3556_84388">
<rect width="34.2167" height="34.2167" fill="white" transform="translate(80.7383 194.67) rotate(39.3833)"/>
</clipPath>
<clipPath id="clip10_3556_84388">
<rect width="34.2167" height="34.2167" fill="white" transform="translate(104.648 215.348) rotate(39.3833)"/>
</clipPath>
<clipPath id="clip11_3556_84388">
<rect width="34.2167" height="34.2167" fill="white" transform="translate(135.668 224.453) rotate(39.3833)"/>
</clipPath>
</defs>
</svg>
