<svg width="99" height="31" viewBox="0 0 99 31" fill="none" xmlns="http://www.w3.org/2000/svg">
<rect width="93" height="31" transform="translate(6)" fill="white"/>
<rect x="75" y="13" width="23" height="12" rx="1.375" stroke="url(#paint0_linear_11758_108706)" stroke-width="1.375"/>
<path d="M7.00439 14.7922C7.00439 13.7823 7.5417 12.8487 8.41488 12.3414V12.3414C9.3597 11.7924 10.5441 12.4741 10.5441 13.5668V22.392C10.5441 23.3695 9.75172 24.1619 8.77425 24.1619V24.1619C7.79679 24.1619 7.00439 23.3695 7.00439 22.392V14.7922Z" fill="url(#paint1_linear_11758_108706)"/>
<path d="M7.0044 13.8385C7.0044 13.2065 7.34137 12.6225 7.8885 12.3062V12.3062C9.06841 11.6242 10.5441 12.4756 10.5441 13.8385L10.5441 15.9418C10.5441 16.9193 9.75172 17.7117 8.77426 17.7117V17.7117C7.79679 17.7117 7.0044 16.9193 7.0044 15.9418V13.8385Z" fill="url(#paint2_linear_11758_108706)"/>
<path d="M14.2481 11.6928L9.98467 14.1407C8.14085 15.1994 7.00391 17.1632 7.00391 19.2893V19.8946L15.5835 14.9411C16.2463 14.5584 16.6546 13.8513 16.6546 13.086C16.6546 11.851 15.3191 11.0778 14.2481 11.6928Z" fill="url(#paint3_linear_11758_108706)"/>
<path fill-rule="evenodd" clip-rule="evenodd" d="M7.38428 19.6756C7.15785 19.7976 7.00395 20.0368 7.00395 20.3121C7.00395 20.3139 7.00396 20.3156 7.00397 20.3174L7.00395 20.3174L7.00395 19.4598L7.38428 19.6756Z" fill="#6501E5"/>
<path fill-rule="evenodd" clip-rule="evenodd" d="M16.3193 14.517C16.3507 14.4422 16.368 14.3601 16.368 14.2739C16.368 14.14 16.3262 14.0159 16.2549 13.9138L16.6572 13.6862L16.6572 13.9586C16.6572 14.1832 16.5374 14.3909 16.3429 14.5033L16.3193 14.517Z" fill="#9327FE"/>
<path d="M16.2602 13.9246C16.1824 13.6854 13.2817 11.6847 10.2418 9.62189C9.07807 8.83224 9.63426 7.0147 11.0406 7.01469C11.3299 7.01469 11.6125 7.10269 11.8507 7.26702L14.0971 8.81682C15.7002 9.92284 16.6575 11.7461 16.6574 13.6938L16.2602 13.9246Z" fill="#9327FE"/>
<path d="M18.9248 17.3595C18.7927 17.3195 18.5946 17.2929 18.3965 17.2929C17.8681 17.2929 17.036 17.5059 16.6926 18.2514V17.3595H14.751V23.9757H16.7586V21.0869C16.7586 19.769 17.4851 19.2898 18.2908 19.2898C18.4889 19.2898 18.7003 19.3031 18.9248 19.3563V17.3595Z" fill="#0556F3"/>
<path d="M23.0768 22.3117C22.3239 22.3117 21.5974 21.7659 21.5974 20.661C21.5974 19.5427 22.3239 19.0235 23.0768 19.0235C23.8429 19.0235 24.5561 19.5427 24.5561 20.661C24.5561 21.7792 23.8429 22.3117 23.0768 22.3117ZM23.0768 17.1598C21.1219 17.1598 19.5898 18.6108 19.5898 20.661C19.5898 22.7111 21.1219 24.1754 23.0768 24.1754C25.0448 24.1754 26.5638 22.7111 26.5638 20.661C26.5638 18.6108 25.0448 17.1598 23.0768 17.1598Z" fill="#0556F3"/>
<path d="M27.3938 24.3485C27.5788 25.5333 28.7807 26.7048 30.6695 26.7048C33.1263 26.7048 34.1829 25.054 34.1829 23.1504V17.3595H32.2677V18.065C32.0828 17.7189 31.5148 17.2397 30.445 17.2397C28.6486 17.2397 27.3938 18.7307 27.3938 20.4746C27.3938 22.3117 28.7015 23.6962 30.445 23.6962C31.396 23.6962 31.9639 23.3101 32.2017 22.9507V23.2569C32.2017 24.455 31.5809 24.9475 30.577 24.9475C29.8242 24.9475 29.2958 24.4816 29.1638 23.8426L27.3938 24.3485ZM30.8148 21.9389C30.0091 21.9389 29.4015 21.3798 29.4015 20.4746C29.4015 19.5693 30.0619 19.0102 30.8148 19.0102C31.5677 19.0102 32.2149 19.5693 32.2149 20.4746C32.2149 21.3798 31.6337 21.9389 30.8148 21.9389Z" fill="#0556F3"/>
<path d="M40.053 17.3595C39.9209 17.3195 39.7228 17.2929 39.5247 17.2929C38.9963 17.2929 38.1642 17.5059 37.8208 18.2514V17.3595H35.8792V23.9757H37.8868V21.0869C37.8868 19.769 38.6133 19.2898 39.419 19.2898C39.6171 19.2898 39.8285 19.3031 40.053 19.3563V17.3595Z" fill="#0556F3"/>
<path d="M40.9262 22.1519C40.9262 23.2036 41.7583 24.1621 43.198 24.1621C44.0698 24.1621 44.7038 23.7894 45.0472 23.2302C45.0472 23.6829 45.1 23.9225 45.1132 23.9757H46.9228C46.9096 23.9092 46.8435 23.4699 46.8435 22.9507V19.7158C46.8435 18.3579 46.0642 17.1598 43.9377 17.1598C42.0093 17.1598 41.1375 18.4112 41.0583 19.3563L42.8018 19.7158C42.8414 19.2232 43.2244 18.744 43.9245 18.744C44.5585 18.744 44.8887 19.0768 44.8887 19.4628C44.8887 19.6891 44.7698 19.8622 44.4132 19.9155L42.8678 20.1551C41.7847 20.3148 40.9262 20.9804 40.9262 22.1519ZM43.6867 22.6977C43.132 22.6977 42.9074 22.3649 42.9074 22.0188C42.9074 21.5529 43.2244 21.3532 43.6471 21.2866L44.8887 21.0869V21.3798C44.8887 22.4049 44.2811 22.6977 43.6867 22.6977Z" fill="#0556F3"/>
<path d="M50.5405 23.9757V20.1684C50.5405 19.5693 50.9236 19.0235 51.6236 19.0235C52.3501 19.0235 52.6803 19.5161 52.6803 20.1418V23.9757H54.6615V20.1551C54.6615 19.5693 55.0446 19.0235 55.7578 19.0235C56.4711 19.0235 56.8013 19.5161 56.8013 20.1418V23.9757H58.7429V19.6891C58.7429 17.892 57.5542 17.1598 56.3126 17.1598C55.4276 17.1598 54.7936 17.4527 54.2785 18.1982C53.9483 17.5458 53.2747 17.1598 52.3369 17.1598C51.6236 17.1598 50.7783 17.5325 50.4481 18.1183V17.3595H48.5329V23.9757H50.5405Z" fill="#0556F3"/>
<path d="M70.6011 23.9757V22.2318H67.5236L70.5483 19.0235V17.3595H65.1725V19.0901H67.9859L65.0932 22.1919V23.9757H70.6011Z" fill="#0556F3"/>
<path d="M62.8636 23.9621H60.5552L61.2343 19.6246H60.5552V17.2072H63.5386V19.6246L62.8636 23.9621Z" fill="#065AFF"/>
<path d="M63.5386 12.8396H60.5552V15.6998H63.5386V12.8396Z" fill="#065AFF"/>
<path d="M82.8815 17.9723C82.8815 16.7907 81.9587 15.8765 80.7254 15.8765H78.6468V22H80.0182V20.0595H80.7254C81.9587 20.0595 82.8815 19.1539 82.8815 17.9723ZM81.5533 17.9723C81.5533 18.4208 81.1997 18.7744 80.7081 18.7744H80.0182V17.1702H80.7081C81.1997 17.1702 81.5533 17.5152 81.5533 17.9723ZM83.7593 22H85.1306V19.473H85.3548L87.3902 22H89.0375L86.8728 19.3005C87.649 19.0245 88.0716 18.5157 88.0716 17.7222C88.0716 16.7045 87.3299 15.8765 86.1742 15.8765H83.7593V22ZM85.1306 18.3087V17.1357H86.0103C86.4157 17.1357 86.7089 17.3513 86.7089 17.7222C86.7089 18.0758 86.4157 18.3087 86.0103 18.3087H85.1306ZM92.0625 22.1035C93.8047 22.1035 95.2278 20.6804 95.2278 18.9383C95.2278 17.1961 93.8047 15.773 92.0625 15.773C90.3118 15.773 88.8973 17.1961 88.8973 18.9383C88.8973 20.6804 90.3118 22.1035 92.0625 22.1035ZM92.0625 20.7753C91.0621 20.7753 90.2773 19.9301 90.2773 18.9383C90.2773 17.9464 91.0621 17.1012 92.0625 17.1012C93.0544 17.1012 93.8392 17.9464 93.8392 18.9383C93.8392 19.9301 93.0544 20.7753 92.0625 20.7753Z" fill="url(#paint4_linear_11758_108706)"/>
<defs>
<linearGradient id="paint0_linear_11758_108706" x1="86.5" y1="15.0455" x2="86.5" y2="25" gradientUnits="userSpaceOnUse">
<stop stop-color="#9327FE"/>
<stop offset="1" stop-color="#6501E5"/>
</linearGradient>
<linearGradient id="paint1_linear_11758_108706" x1="8.77425" y1="22.8051" x2="8.77425" y2="16.8331" gradientUnits="userSpaceOnUse">
<stop stop-color="#00A3FF"/>
<stop offset="1" stop-color="#0597EA"/>
</linearGradient>
<linearGradient id="paint2_linear_11758_108706" x1="8.77425" y1="17.0251" x2="8.77425" y2="14.0031" gradientUnits="userSpaceOnUse">
<stop stop-color="#00A3FF"/>
<stop offset="1" stop-color="#0597EA"/>
</linearGradient>
<linearGradient id="paint3_linear_11758_108706" x1="10.0494" y1="15.9419" x2="17.3136" y2="11.8665" gradientUnits="userSpaceOnUse">
<stop stop-color="#6501E5"/>
<stop offset="1" stop-color="#5F01D8"/>
</linearGradient>
<linearGradient id="paint4_linear_11758_108706" x1="87" y1="14.813" x2="87" y2="23.6364" gradientUnits="userSpaceOnUse">
<stop stop-color="#9327FE"/>
<stop offset="1" stop-color="#6501E5"/>
</linearGradient>
</defs>
</svg>
